%TF.GenerationSoftware,KiCad,Pcbnew,5.99.0-unknown-8eca23aabe~115~ubuntu20.04.1*%
%TF.CreationDate,2021-02-02T11:51:55+00:00*%
%TF.ProjectId,dvi-sock,6476692d-736f-4636-9b2e-6b696361645f,rev?*%
%TF.SameCoordinates,Original*%
%TF.FileFunction,Legend,Bot*%
%TF.FilePolarity,Positive*%
%FSLAX46Y46*%
G04 Gerber Fmt 4.6, Leading zero omitted, Abs format (unit mm)*
G04 Created by KiCad (PCBNEW 5.99.0-unknown-8eca23aabe~115~ubuntu20.04.1) date 2021-02-02 11:51:55*
%MOMM*%
%LPD*%
G01*
G04 APERTURE LIST*
%ADD10C,0.250000*%
%ADD11C,0.130000*%
%ADD12C,0.120000*%
G04 APERTURE END LIST*
D10*
X164397380Y-81595238D02*
X163397380Y-81595238D01*
X164397380Y-82166666D01*
X163397380Y-82166666D01*
X163397380Y-82833333D02*
X163397380Y-83023809D01*
X163445000Y-83119047D01*
X163540238Y-83214285D01*
X163730714Y-83261904D01*
X164064047Y-83261904D01*
X164254523Y-83214285D01*
X164349761Y-83119047D01*
X164397380Y-83023809D01*
X164397380Y-82833333D01*
X164349761Y-82738095D01*
X164254523Y-82642857D01*
X164064047Y-82595238D01*
X163730714Y-82595238D01*
X163540238Y-82642857D01*
X163445000Y-82738095D01*
X163397380Y-82833333D01*
X163397380Y-83547619D02*
X163397380Y-84119047D01*
X164397380Y-83833333D02*
X163397380Y-83833333D01*
X164397380Y-85214285D02*
X163397380Y-85214285D01*
X163873571Y-85214285D02*
X163873571Y-85785714D01*
X164397380Y-85785714D02*
X163397380Y-85785714D01*
X164397380Y-86261904D02*
X163397380Y-86261904D01*
X163397380Y-86500000D01*
X163445000Y-86642857D01*
X163540238Y-86738095D01*
X163635476Y-86785714D01*
X163825952Y-86833333D01*
X163968809Y-86833333D01*
X164159285Y-86785714D01*
X164254523Y-86738095D01*
X164349761Y-86642857D01*
X164397380Y-86500000D01*
X164397380Y-86261904D01*
X164397380Y-87261904D02*
X163397380Y-87261904D01*
X164111666Y-87595238D01*
X163397380Y-87928571D01*
X164397380Y-87928571D01*
X164397380Y-88404761D02*
X163397380Y-88404761D01*
X165340714Y-78500000D02*
X166197857Y-78500000D01*
X166293095Y-78452380D01*
X166340714Y-78357142D01*
X166340714Y-78309523D01*
X165007380Y-78500000D02*
X165055000Y-78452380D01*
X165102619Y-78500000D01*
X165055000Y-78547619D01*
X165007380Y-78500000D01*
X165102619Y-78500000D01*
X165340714Y-79404761D02*
X166007380Y-79404761D01*
X165340714Y-78976190D02*
X165864523Y-78976190D01*
X165959761Y-79023809D01*
X166007380Y-79119047D01*
X166007380Y-79261904D01*
X165959761Y-79357142D01*
X165912142Y-79404761D01*
X165959761Y-79833333D02*
X166007380Y-79928571D01*
X166007380Y-80119047D01*
X165959761Y-80214285D01*
X165864523Y-80261904D01*
X165816904Y-80261904D01*
X165721666Y-80214285D01*
X165674047Y-80119047D01*
X165674047Y-79976190D01*
X165626428Y-79880952D01*
X165531190Y-79833333D01*
X165483571Y-79833333D01*
X165388333Y-79880952D01*
X165340714Y-79976190D01*
X165340714Y-80119047D01*
X165388333Y-80214285D01*
X165340714Y-80547619D02*
X165340714Y-80928571D01*
X165007380Y-80690476D02*
X165864523Y-80690476D01*
X165959761Y-80738095D01*
X166007380Y-80833333D01*
X166007380Y-80928571D01*
X165959761Y-81976190D02*
X166007380Y-82071428D01*
X166007380Y-82261904D01*
X165959761Y-82357142D01*
X165864523Y-82404761D01*
X165816904Y-82404761D01*
X165721666Y-82357142D01*
X165674047Y-82261904D01*
X165674047Y-82119047D01*
X165626428Y-82023809D01*
X165531190Y-81976190D01*
X165483571Y-81976190D01*
X165388333Y-82023809D01*
X165340714Y-82119047D01*
X165340714Y-82261904D01*
X165388333Y-82357142D01*
X165340714Y-82833333D02*
X166340714Y-82833333D01*
X165388333Y-82833333D02*
X165340714Y-82928571D01*
X165340714Y-83119047D01*
X165388333Y-83214285D01*
X165435952Y-83261904D01*
X165531190Y-83309523D01*
X165816904Y-83309523D01*
X165912142Y-83261904D01*
X165959761Y-83214285D01*
X166007380Y-83119047D01*
X166007380Y-82928571D01*
X165959761Y-82833333D01*
X166007380Y-84166666D02*
X165483571Y-84166666D01*
X165388333Y-84119047D01*
X165340714Y-84023809D01*
X165340714Y-83833333D01*
X165388333Y-83738095D01*
X165959761Y-84166666D02*
X166007380Y-84071428D01*
X166007380Y-83833333D01*
X165959761Y-83738095D01*
X165864523Y-83690476D01*
X165769285Y-83690476D01*
X165674047Y-83738095D01*
X165626428Y-83833333D01*
X165626428Y-84071428D01*
X165578809Y-84166666D01*
X166007380Y-84642857D02*
X165340714Y-84642857D01*
X165531190Y-84642857D02*
X165435952Y-84690476D01*
X165388333Y-84738095D01*
X165340714Y-84833333D01*
X165340714Y-84928571D01*
X166007380Y-85261904D02*
X165007380Y-85261904D01*
X165626428Y-85357142D02*
X166007380Y-85642857D01*
X165340714Y-85642857D02*
X165721666Y-85261904D01*
X166007380Y-86214285D02*
X165959761Y-86119047D01*
X165864523Y-86071428D01*
X165007380Y-86071428D01*
X166007380Y-86595238D02*
X165340714Y-86595238D01*
X165007380Y-86595238D02*
X165055000Y-86547619D01*
X165102619Y-86595238D01*
X165055000Y-86642857D01*
X165007380Y-86595238D01*
X165102619Y-86595238D01*
X165340714Y-87071428D02*
X166007380Y-87071428D01*
X165435952Y-87071428D02*
X165388333Y-87119047D01*
X165340714Y-87214285D01*
X165340714Y-87357142D01*
X165388333Y-87452380D01*
X165483571Y-87500000D01*
X166007380Y-87500000D01*
X165340714Y-88404761D02*
X166150238Y-88404761D01*
X166245476Y-88357142D01*
X166293095Y-88309523D01*
X166340714Y-88214285D01*
X166340714Y-88071428D01*
X166293095Y-87976190D01*
X165959761Y-88404761D02*
X166007380Y-88309523D01*
X166007380Y-88119047D01*
X165959761Y-88023809D01*
X165912142Y-87976190D01*
X165816904Y-87928571D01*
X165531190Y-87928571D01*
X165435952Y-87976190D01*
X165388333Y-88023809D01*
X165340714Y-88119047D01*
X165340714Y-88309523D01*
X165388333Y-88404761D01*
X166007380Y-89642857D02*
X165007380Y-89642857D01*
X165007380Y-89880952D01*
X165055000Y-90023809D01*
X165150238Y-90119047D01*
X165245476Y-90166666D01*
X165435952Y-90214285D01*
X165578809Y-90214285D01*
X165769285Y-90166666D01*
X165864523Y-90119047D01*
X165959761Y-90023809D01*
X166007380Y-89880952D01*
X166007380Y-89642857D01*
X165007380Y-90500000D02*
X166007380Y-90833333D01*
X165007380Y-91166666D01*
X166007380Y-91499999D02*
X165007380Y-91499999D01*
D11*
X143685000Y-77842857D02*
X143637380Y-77757142D01*
X143637380Y-77628571D01*
X143685000Y-77500000D01*
X143780238Y-77414285D01*
X143875476Y-77371428D01*
X144065952Y-77328571D01*
X144208809Y-77328571D01*
X144399285Y-77371428D01*
X144494523Y-77414285D01*
X144589761Y-77500000D01*
X144637380Y-77628571D01*
X144637380Y-77714285D01*
X144589761Y-77842857D01*
X144542142Y-77885714D01*
X144208809Y-77885714D01*
X144208809Y-77714285D01*
X144637380Y-78271428D02*
X143637380Y-78271428D01*
X143637380Y-78614285D01*
X143685000Y-78700000D01*
X143732619Y-78742857D01*
X143827857Y-78785714D01*
X143970714Y-78785714D01*
X144065952Y-78742857D01*
X144113571Y-78700000D01*
X144161190Y-78614285D01*
X144161190Y-78271428D01*
X144637380Y-79642857D02*
X144637380Y-79128571D01*
X144637380Y-79385714D02*
X143637380Y-79385714D01*
X143780238Y-79300000D01*
X143875476Y-79214285D01*
X143923095Y-79128571D01*
X143732619Y-79985714D02*
X143685000Y-80028571D01*
X143637380Y-80114285D01*
X143637380Y-80328571D01*
X143685000Y-80414285D01*
X143732619Y-80457142D01*
X143827857Y-80500000D01*
X143923095Y-80500000D01*
X144065952Y-80457142D01*
X144637380Y-79942857D01*
X144637380Y-80500000D01*
X144542142Y-80885714D02*
X144589761Y-80928571D01*
X144637380Y-80885714D01*
X144589761Y-80842857D01*
X144542142Y-80885714D01*
X144637380Y-80885714D01*
X144018333Y-80885714D02*
X144065952Y-80928571D01*
X144113571Y-80885714D01*
X144065952Y-80842857D01*
X144018333Y-80885714D01*
X144113571Y-80885714D01*
X144637380Y-82000000D02*
X143637380Y-82000000D01*
X143637380Y-82214285D01*
X143685000Y-82342857D01*
X143780238Y-82428571D01*
X143875476Y-82471428D01*
X144065952Y-82514285D01*
X144208809Y-82514285D01*
X144399285Y-82471428D01*
X144494523Y-82428571D01*
X144589761Y-82342857D01*
X144637380Y-82214285D01*
X144637380Y-82000000D01*
X143637380Y-83071428D02*
X143637380Y-83157142D01*
X143685000Y-83242857D01*
X143732619Y-83285714D01*
X143827857Y-83328571D01*
X144018333Y-83371428D01*
X144256428Y-83371428D01*
X144446904Y-83328571D01*
X144542142Y-83285714D01*
X144589761Y-83242857D01*
X144637380Y-83157142D01*
X144637380Y-83071428D01*
X144589761Y-82985714D01*
X144542142Y-82942857D01*
X144446904Y-82900000D01*
X144256428Y-82857142D01*
X144018333Y-82857142D01*
X143827857Y-82900000D01*
X143732619Y-82942857D01*
X143685000Y-82985714D01*
X143637380Y-83071428D01*
X144256428Y-83757142D02*
X144256428Y-84442857D01*
X144637380Y-84100000D02*
X143875476Y-84100000D01*
X143685000Y-86028571D02*
X143637380Y-85942857D01*
X143637380Y-85814285D01*
X143685000Y-85685714D01*
X143780238Y-85600000D01*
X143875476Y-85557142D01*
X144065952Y-85514285D01*
X144208809Y-85514285D01*
X144399285Y-85557142D01*
X144494523Y-85600000D01*
X144589761Y-85685714D01*
X144637380Y-85814285D01*
X144637380Y-85900000D01*
X144589761Y-86028571D01*
X144542142Y-86071428D01*
X144208809Y-86071428D01*
X144208809Y-85900000D01*
X144637380Y-86457142D02*
X143637380Y-86457142D01*
X143637380Y-86800000D01*
X143685000Y-86885714D01*
X143732619Y-86928571D01*
X143827857Y-86971428D01*
X143970714Y-86971428D01*
X144065952Y-86928571D01*
X144113571Y-86885714D01*
X144161190Y-86800000D01*
X144161190Y-86457142D01*
X144637380Y-87828571D02*
X144637380Y-87314285D01*
X144637380Y-87571428D02*
X143637380Y-87571428D01*
X143780238Y-87485714D01*
X143875476Y-87400000D01*
X143923095Y-87314285D01*
X143637380Y-88600000D02*
X143637380Y-88428571D01*
X143685000Y-88342857D01*
X143732619Y-88300000D01*
X143875476Y-88214285D01*
X144065952Y-88171428D01*
X144446904Y-88171428D01*
X144542142Y-88214285D01*
X144589761Y-88257142D01*
X144637380Y-88342857D01*
X144637380Y-88514285D01*
X144589761Y-88600000D01*
X144542142Y-88642857D01*
X144446904Y-88685714D01*
X144208809Y-88685714D01*
X144113571Y-88642857D01*
X144065952Y-88600000D01*
X144018333Y-88514285D01*
X144018333Y-88342857D01*
X144065952Y-88257142D01*
X144113571Y-88214285D01*
X144208809Y-88171428D01*
X144542142Y-89071428D02*
X144589761Y-89114285D01*
X144637380Y-89071428D01*
X144589761Y-89028571D01*
X144542142Y-89071428D01*
X144637380Y-89071428D01*
X144018333Y-89071428D02*
X144065952Y-89114285D01*
X144113571Y-89071428D01*
X144065952Y-89028571D01*
X144018333Y-89071428D01*
X144113571Y-89071428D01*
X144637380Y-90185714D02*
X143637380Y-90185714D01*
X143637380Y-90400000D01*
X143685000Y-90528571D01*
X143780238Y-90614285D01*
X143875476Y-90657142D01*
X144065952Y-90700000D01*
X144208809Y-90700000D01*
X144399285Y-90657142D01*
X144494523Y-90614285D01*
X144589761Y-90528571D01*
X144637380Y-90400000D01*
X144637380Y-90185714D01*
X143732619Y-91042857D02*
X143685000Y-91085714D01*
X143637380Y-91171428D01*
X143637380Y-91385714D01*
X143685000Y-91471428D01*
X143732619Y-91514285D01*
X143827857Y-91557142D01*
X143923095Y-91557142D01*
X144065952Y-91514285D01*
X144637380Y-91000000D01*
X144637380Y-91557142D01*
X144256428Y-91942857D02*
X144256428Y-92628571D01*
X144637380Y-92285714D02*
X143875476Y-92285714D01*
X145295000Y-77842857D02*
X145247380Y-77757142D01*
X145247380Y-77628571D01*
X145295000Y-77500000D01*
X145390238Y-77414285D01*
X145485476Y-77371428D01*
X145675952Y-77328571D01*
X145818809Y-77328571D01*
X146009285Y-77371428D01*
X146104523Y-77414285D01*
X146199761Y-77500000D01*
X146247380Y-77628571D01*
X146247380Y-77714285D01*
X146199761Y-77842857D01*
X146152142Y-77885714D01*
X145818809Y-77885714D01*
X145818809Y-77714285D01*
X146247380Y-78271428D02*
X145247380Y-78271428D01*
X145247380Y-78614285D01*
X145295000Y-78700000D01*
X145342619Y-78742857D01*
X145437857Y-78785714D01*
X145580714Y-78785714D01*
X145675952Y-78742857D01*
X145723571Y-78700000D01*
X145771190Y-78614285D01*
X145771190Y-78271428D01*
X146247380Y-79642857D02*
X146247380Y-79128571D01*
X146247380Y-79385714D02*
X145247380Y-79385714D01*
X145390238Y-79300000D01*
X145485476Y-79214285D01*
X145533095Y-79128571D01*
X145247380Y-79942857D02*
X145247380Y-80500000D01*
X145628333Y-80200000D01*
X145628333Y-80328571D01*
X145675952Y-80414285D01*
X145723571Y-80457142D01*
X145818809Y-80500000D01*
X146056904Y-80500000D01*
X146152142Y-80457142D01*
X146199761Y-80414285D01*
X146247380Y-80328571D01*
X146247380Y-80071428D01*
X146199761Y-79985714D01*
X146152142Y-79942857D01*
X146152142Y-80885714D02*
X146199761Y-80928571D01*
X146247380Y-80885714D01*
X146199761Y-80842857D01*
X146152142Y-80885714D01*
X146247380Y-80885714D01*
X145628333Y-80885714D02*
X145675952Y-80928571D01*
X145723571Y-80885714D01*
X145675952Y-80842857D01*
X145628333Y-80885714D01*
X145723571Y-80885714D01*
X146247380Y-82000000D02*
X145247380Y-82000000D01*
X145247380Y-82214285D01*
X145295000Y-82342857D01*
X145390238Y-82428571D01*
X145485476Y-82471428D01*
X145675952Y-82514285D01*
X145818809Y-82514285D01*
X146009285Y-82471428D01*
X146104523Y-82428571D01*
X146199761Y-82342857D01*
X146247380Y-82214285D01*
X146247380Y-82000000D01*
X145247380Y-83071428D02*
X145247380Y-83157142D01*
X145295000Y-83242857D01*
X145342619Y-83285714D01*
X145437857Y-83328571D01*
X145628333Y-83371428D01*
X145866428Y-83371428D01*
X146056904Y-83328571D01*
X146152142Y-83285714D01*
X146199761Y-83242857D01*
X146247380Y-83157142D01*
X146247380Y-83071428D01*
X146199761Y-82985714D01*
X146152142Y-82942857D01*
X146056904Y-82900000D01*
X145866428Y-82857142D01*
X145628333Y-82857142D01*
X145437857Y-82900000D01*
X145342619Y-82942857D01*
X145295000Y-82985714D01*
X145247380Y-83071428D01*
X145866428Y-83757142D02*
X145866428Y-84442857D01*
X145295000Y-86028571D02*
X145247380Y-85942857D01*
X145247380Y-85814285D01*
X145295000Y-85685714D01*
X145390238Y-85600000D01*
X145485476Y-85557142D01*
X145675952Y-85514285D01*
X145818809Y-85514285D01*
X146009285Y-85557142D01*
X146104523Y-85600000D01*
X146199761Y-85685714D01*
X146247380Y-85814285D01*
X146247380Y-85900000D01*
X146199761Y-86028571D01*
X146152142Y-86071428D01*
X145818809Y-86071428D01*
X145818809Y-85900000D01*
X146247380Y-86457142D02*
X145247380Y-86457142D01*
X145247380Y-86800000D01*
X145295000Y-86885714D01*
X145342619Y-86928571D01*
X145437857Y-86971428D01*
X145580714Y-86971428D01*
X145675952Y-86928571D01*
X145723571Y-86885714D01*
X145771190Y-86800000D01*
X145771190Y-86457142D01*
X146247380Y-87828571D02*
X146247380Y-87314285D01*
X146247380Y-87571428D02*
X145247380Y-87571428D01*
X145390238Y-87485714D01*
X145485476Y-87400000D01*
X145533095Y-87314285D01*
X145247380Y-88128571D02*
X145247380Y-88728571D01*
X146247380Y-88342857D01*
X146152142Y-89071428D02*
X146199761Y-89114285D01*
X146247380Y-89071428D01*
X146199761Y-89028571D01*
X146152142Y-89071428D01*
X146247380Y-89071428D01*
X145628333Y-89071428D02*
X145675952Y-89114285D01*
X145723571Y-89071428D01*
X145675952Y-89028571D01*
X145628333Y-89071428D01*
X145723571Y-89071428D01*
X146247380Y-90185714D02*
X145247380Y-90185714D01*
X145247380Y-90400000D01*
X145295000Y-90528571D01*
X145390238Y-90614285D01*
X145485476Y-90657142D01*
X145675952Y-90700000D01*
X145818809Y-90700000D01*
X146009285Y-90657142D01*
X146104523Y-90614285D01*
X146199761Y-90528571D01*
X146247380Y-90400000D01*
X146247380Y-90185714D01*
X145342619Y-91042857D02*
X145295000Y-91085714D01*
X145247380Y-91171428D01*
X145247380Y-91385714D01*
X145295000Y-91471428D01*
X145342619Y-91514285D01*
X145437857Y-91557142D01*
X145533095Y-91557142D01*
X145675952Y-91514285D01*
X146247380Y-91000000D01*
X146247380Y-91557142D01*
X145866428Y-91942857D02*
X145866428Y-92628571D01*
X146905000Y-77821428D02*
X146857380Y-77735714D01*
X146857380Y-77607142D01*
X146905000Y-77478571D01*
X147000238Y-77392857D01*
X147095476Y-77350000D01*
X147285952Y-77307142D01*
X147428809Y-77307142D01*
X147619285Y-77350000D01*
X147714523Y-77392857D01*
X147809761Y-77478571D01*
X147857380Y-77607142D01*
X147857380Y-77692857D01*
X147809761Y-77821428D01*
X147762142Y-77864285D01*
X147428809Y-77864285D01*
X147428809Y-77692857D01*
X147857380Y-78250000D02*
X146857380Y-78250000D01*
X146857380Y-78592857D01*
X146905000Y-78678571D01*
X146952619Y-78721428D01*
X147047857Y-78764285D01*
X147190714Y-78764285D01*
X147285952Y-78721428D01*
X147333571Y-78678571D01*
X147381190Y-78592857D01*
X147381190Y-78250000D01*
X147857380Y-79621428D02*
X147857380Y-79107142D01*
X147857380Y-79364285D02*
X146857380Y-79364285D01*
X147000238Y-79278571D01*
X147095476Y-79192857D01*
X147143095Y-79107142D01*
X147190714Y-80392857D02*
X147857380Y-80392857D01*
X146809761Y-80178571D02*
X147524047Y-79964285D01*
X147524047Y-80521428D01*
X147762142Y-80864285D02*
X147809761Y-80907142D01*
X147857380Y-80864285D01*
X147809761Y-80821428D01*
X147762142Y-80864285D01*
X147857380Y-80864285D01*
X147238333Y-80864285D02*
X147285952Y-80907142D01*
X147333571Y-80864285D01*
X147285952Y-80821428D01*
X147238333Y-80864285D01*
X147333571Y-80864285D01*
X147762142Y-82492857D02*
X147809761Y-82450000D01*
X147857380Y-82321428D01*
X147857380Y-82235714D01*
X147809761Y-82107142D01*
X147714523Y-82021428D01*
X147619285Y-81978571D01*
X147428809Y-81935714D01*
X147285952Y-81935714D01*
X147095476Y-81978571D01*
X147000238Y-82021428D01*
X146905000Y-82107142D01*
X146857380Y-82235714D01*
X146857380Y-82321428D01*
X146905000Y-82450000D01*
X146952619Y-82492857D01*
X147857380Y-82878571D02*
X146857380Y-82878571D01*
X147857380Y-83392857D02*
X147285952Y-83007142D01*
X146857380Y-83392857D02*
X147428809Y-82878571D01*
X147476428Y-83778571D02*
X147476428Y-84464285D01*
X147857380Y-84121428D02*
X147095476Y-84121428D01*
X146905000Y-86050000D02*
X146857380Y-85964285D01*
X146857380Y-85835714D01*
X146905000Y-85707142D01*
X147000238Y-85621428D01*
X147095476Y-85578571D01*
X147285952Y-85535714D01*
X147428809Y-85535714D01*
X147619285Y-85578571D01*
X147714523Y-85621428D01*
X147809761Y-85707142D01*
X147857380Y-85835714D01*
X147857380Y-85921428D01*
X147809761Y-86050000D01*
X147762142Y-86092857D01*
X147428809Y-86092857D01*
X147428809Y-85921428D01*
X147857380Y-86478571D02*
X146857380Y-86478571D01*
X146857380Y-86821428D01*
X146905000Y-86907142D01*
X146952619Y-86950000D01*
X147047857Y-86992857D01*
X147190714Y-86992857D01*
X147285952Y-86950000D01*
X147333571Y-86907142D01*
X147381190Y-86821428D01*
X147381190Y-86478571D01*
X147857380Y-87850000D02*
X147857380Y-87335714D01*
X147857380Y-87592857D02*
X146857380Y-87592857D01*
X147000238Y-87507142D01*
X147095476Y-87421428D01*
X147143095Y-87335714D01*
X147285952Y-88364285D02*
X147238333Y-88278571D01*
X147190714Y-88235714D01*
X147095476Y-88192857D01*
X147047857Y-88192857D01*
X146952619Y-88235714D01*
X146905000Y-88278571D01*
X146857380Y-88364285D01*
X146857380Y-88535714D01*
X146905000Y-88621428D01*
X146952619Y-88664285D01*
X147047857Y-88707142D01*
X147095476Y-88707142D01*
X147190714Y-88664285D01*
X147238333Y-88621428D01*
X147285952Y-88535714D01*
X147285952Y-88364285D01*
X147333571Y-88278571D01*
X147381190Y-88235714D01*
X147476428Y-88192857D01*
X147666904Y-88192857D01*
X147762142Y-88235714D01*
X147809761Y-88278571D01*
X147857380Y-88364285D01*
X147857380Y-88535714D01*
X147809761Y-88621428D01*
X147762142Y-88664285D01*
X147666904Y-88707142D01*
X147476428Y-88707142D01*
X147381190Y-88664285D01*
X147333571Y-88621428D01*
X147285952Y-88535714D01*
X147762142Y-89092857D02*
X147809761Y-89135714D01*
X147857380Y-89092857D01*
X147809761Y-89050000D01*
X147762142Y-89092857D01*
X147857380Y-89092857D01*
X147238333Y-89092857D02*
X147285952Y-89135714D01*
X147333571Y-89092857D01*
X147285952Y-89050000D01*
X147238333Y-89092857D01*
X147333571Y-89092857D01*
X147857380Y-90207142D02*
X146857380Y-90207142D01*
X146857380Y-90421428D01*
X146905000Y-90550000D01*
X147000238Y-90635714D01*
X147095476Y-90678571D01*
X147285952Y-90721428D01*
X147428809Y-90721428D01*
X147619285Y-90678571D01*
X147714523Y-90635714D01*
X147809761Y-90550000D01*
X147857380Y-90421428D01*
X147857380Y-90207142D01*
X147857380Y-91578571D02*
X147857380Y-91064285D01*
X147857380Y-91321428D02*
X146857380Y-91321428D01*
X147000238Y-91235714D01*
X147095476Y-91150000D01*
X147143095Y-91064285D01*
X147476428Y-91964285D02*
X147476428Y-92650000D01*
X147857380Y-92307142D02*
X147095476Y-92307142D01*
X148515000Y-77821428D02*
X148467380Y-77735714D01*
X148467380Y-77607142D01*
X148515000Y-77478571D01*
X148610238Y-77392857D01*
X148705476Y-77350000D01*
X148895952Y-77307142D01*
X149038809Y-77307142D01*
X149229285Y-77350000D01*
X149324523Y-77392857D01*
X149419761Y-77478571D01*
X149467380Y-77607142D01*
X149467380Y-77692857D01*
X149419761Y-77821428D01*
X149372142Y-77864285D01*
X149038809Y-77864285D01*
X149038809Y-77692857D01*
X149467380Y-78250000D02*
X148467380Y-78250000D01*
X148467380Y-78592857D01*
X148515000Y-78678571D01*
X148562619Y-78721428D01*
X148657857Y-78764285D01*
X148800714Y-78764285D01*
X148895952Y-78721428D01*
X148943571Y-78678571D01*
X148991190Y-78592857D01*
X148991190Y-78250000D01*
X149467380Y-79621428D02*
X149467380Y-79107142D01*
X149467380Y-79364285D02*
X148467380Y-79364285D01*
X148610238Y-79278571D01*
X148705476Y-79192857D01*
X148753095Y-79107142D01*
X148467380Y-80435714D02*
X148467380Y-80007142D01*
X148943571Y-79964285D01*
X148895952Y-80007142D01*
X148848333Y-80092857D01*
X148848333Y-80307142D01*
X148895952Y-80392857D01*
X148943571Y-80435714D01*
X149038809Y-80478571D01*
X149276904Y-80478571D01*
X149372142Y-80435714D01*
X149419761Y-80392857D01*
X149467380Y-80307142D01*
X149467380Y-80092857D01*
X149419761Y-80007142D01*
X149372142Y-79964285D01*
X149372142Y-80864285D02*
X149419761Y-80907142D01*
X149467380Y-80864285D01*
X149419761Y-80821428D01*
X149372142Y-80864285D01*
X149467380Y-80864285D01*
X148848333Y-80864285D02*
X148895952Y-80907142D01*
X148943571Y-80864285D01*
X148895952Y-80821428D01*
X148848333Y-80864285D01*
X148943571Y-80864285D01*
X149372142Y-82492857D02*
X149419761Y-82450000D01*
X149467380Y-82321428D01*
X149467380Y-82235714D01*
X149419761Y-82107142D01*
X149324523Y-82021428D01*
X149229285Y-81978571D01*
X149038809Y-81935714D01*
X148895952Y-81935714D01*
X148705476Y-81978571D01*
X148610238Y-82021428D01*
X148515000Y-82107142D01*
X148467380Y-82235714D01*
X148467380Y-82321428D01*
X148515000Y-82450000D01*
X148562619Y-82492857D01*
X149467380Y-82878571D02*
X148467380Y-82878571D01*
X149467380Y-83392857D02*
X148895952Y-83007142D01*
X148467380Y-83392857D02*
X149038809Y-82878571D01*
X149086428Y-83778571D02*
X149086428Y-84464285D01*
X148515000Y-86050000D02*
X148467380Y-85964285D01*
X148467380Y-85835714D01*
X148515000Y-85707142D01*
X148610238Y-85621428D01*
X148705476Y-85578571D01*
X148895952Y-85535714D01*
X149038809Y-85535714D01*
X149229285Y-85578571D01*
X149324523Y-85621428D01*
X149419761Y-85707142D01*
X149467380Y-85835714D01*
X149467380Y-85921428D01*
X149419761Y-86050000D01*
X149372142Y-86092857D01*
X149038809Y-86092857D01*
X149038809Y-85921428D01*
X149467380Y-86478571D02*
X148467380Y-86478571D01*
X148467380Y-86821428D01*
X148515000Y-86907142D01*
X148562619Y-86950000D01*
X148657857Y-86992857D01*
X148800714Y-86992857D01*
X148895952Y-86950000D01*
X148943571Y-86907142D01*
X148991190Y-86821428D01*
X148991190Y-86478571D01*
X149467380Y-87850000D02*
X149467380Y-87335714D01*
X149467380Y-87592857D02*
X148467380Y-87592857D01*
X148610238Y-87507142D01*
X148705476Y-87421428D01*
X148753095Y-87335714D01*
X149467380Y-88278571D02*
X149467380Y-88450000D01*
X149419761Y-88535714D01*
X149372142Y-88578571D01*
X149229285Y-88664285D01*
X149038809Y-88707142D01*
X148657857Y-88707142D01*
X148562619Y-88664285D01*
X148515000Y-88621428D01*
X148467380Y-88535714D01*
X148467380Y-88364285D01*
X148515000Y-88278571D01*
X148562619Y-88235714D01*
X148657857Y-88192857D01*
X148895952Y-88192857D01*
X148991190Y-88235714D01*
X149038809Y-88278571D01*
X149086428Y-88364285D01*
X149086428Y-88535714D01*
X149038809Y-88621428D01*
X148991190Y-88664285D01*
X148895952Y-88707142D01*
X149372142Y-89092857D02*
X149419761Y-89135714D01*
X149467380Y-89092857D01*
X149419761Y-89050000D01*
X149372142Y-89092857D01*
X149467380Y-89092857D01*
X148848333Y-89092857D02*
X148895952Y-89135714D01*
X148943571Y-89092857D01*
X148895952Y-89050000D01*
X148848333Y-89092857D01*
X148943571Y-89092857D01*
X149467380Y-90207142D02*
X148467380Y-90207142D01*
X148467380Y-90421428D01*
X148515000Y-90550000D01*
X148610238Y-90635714D01*
X148705476Y-90678571D01*
X148895952Y-90721428D01*
X149038809Y-90721428D01*
X149229285Y-90678571D01*
X149324523Y-90635714D01*
X149419761Y-90550000D01*
X149467380Y-90421428D01*
X149467380Y-90207142D01*
X149467380Y-91578571D02*
X149467380Y-91064285D01*
X149467380Y-91321428D02*
X148467380Y-91321428D01*
X148610238Y-91235714D01*
X148705476Y-91150000D01*
X148753095Y-91064285D01*
X149086428Y-91964285D02*
X149086428Y-92650000D01*
D12*
X158966666Y-84133333D02*
X158633333Y-83900000D01*
X158966666Y-83733333D02*
X158266666Y-83733333D01*
X158266666Y-84000000D01*
X158300000Y-84066666D01*
X158333333Y-84100000D01*
X158400000Y-84133333D01*
X158500000Y-84133333D01*
X158566666Y-84100000D01*
X158600000Y-84066666D01*
X158633333Y-84000000D01*
X158633333Y-83733333D01*
X158933333Y-84700000D02*
X158966666Y-84633333D01*
X158966666Y-84500000D01*
X158933333Y-84433333D01*
X158866666Y-84400000D01*
X158600000Y-84400000D01*
X158533333Y-84433333D01*
X158500000Y-84500000D01*
X158500000Y-84633333D01*
X158533333Y-84700000D01*
X158600000Y-84733333D01*
X158666666Y-84733333D01*
X158733333Y-84400000D01*
X158500000Y-84966666D02*
X158966666Y-85133333D01*
X158500000Y-85300000D01*
X158766666Y-86066666D02*
X158766666Y-86400000D01*
X158966666Y-86000000D02*
X158266666Y-86233333D01*
X158966666Y-86466666D01*
M02*
