M48
; DRILL file {KiCad 5.99.0-unknown-8eca23aabe~115~ubuntu20.04.1} date Tue Feb  2 11:52:00 2021
; FORMAT={-:-/ absolute / inch / decimal}
; #@! TF.CreationDate,2021-02-02T11:52:00+00:00
; #@! TF.GenerationSoftware,Kicad,Pcbnew,5.99.0-unknown-8eca23aabe~115~ubuntu20.04.1
FMAT,2
INCH
T1C0.0118
T2C0.0157
T3C0.0394
T4C0.0512
T5C0.0827
%
G90
G05
T1
X5.6024Y-3.3465
X5.6402Y-3.0461
X5.6417Y-3.6417
X5.7047Y-3.6417
X5.7083Y-3.0453
X5.9429Y-3.0488
X5.9429Y-3.6445
X6.0079Y-3.6457
X6.0106Y-3.0425
X6.0827Y-3.2953
X6.0827Y-3.3976
X6.0827Y-3.4961
X6.0866Y-3.1969
X6.0945Y-2.9232
X6.1004Y-3.7717
X6.1122Y-3.1339
X6.1161Y-3.252
X6.1421Y-3.5224
X6.198Y-3.1701
X6.1988Y-3.2382
X6.2008Y-3.2972
X6.2008Y-3.3583
X6.2024Y-3.5335
X6.2244Y-3.7717
X6.2283Y-2.9232
X6.2378Y-3.1346
X6.3091Y-3.1791
X6.3091Y-3.2382
X6.3091Y-3.2972
X6.3091Y-3.3563
X6.3091Y-3.4744
X6.3224Y-3.5567
X6.3709Y-3.5571
T2
X5.6236Y-2.9331
X5.6236Y-3.7598
X5.7236Y-2.9331
X5.7236Y-3.7598
X5.8236Y-2.9331
X5.8236Y-3.7598
X5.9236Y-2.9331
X5.9236Y-3.7598
X6.0236Y-2.9331
X6.0236Y-3.7598
X6.0787Y-3.2465
X6.0787Y-3.3465
X6.0787Y-3.4465
T3
X5.6236Y-2.9961
X5.6236Y-3.6969
X5.7236Y-2.9961
X5.7236Y-3.6969
X5.8236Y-2.9961
X5.8236Y-3.6969
X5.9236Y-2.9961
X5.9236Y-3.6969
X6.0157Y-3.2465
X6.0157Y-3.3465
X6.0157Y-3.4465
X6.0236Y-2.9961
X6.0236Y-3.6969
X6.2953Y-3.7323
X6.3953Y-3.7323
T4
X6.2874Y-3.061
X6.2874Y-3.6319
X6.4803Y-3.0374
X6.4803Y-3.6555
T5
X6.1614Y-2.9921
X6.1614Y-3.7008
T0
M30
