%TF.GenerationSoftware,KiCad,Pcbnew,5.99.0-unknown-8eca23aabe~115~ubuntu20.04.1*%
%TF.CreationDate,2021-02-02T11:51:54+00:00*%
%TF.ProjectId,dvi-sock,6476692d-736f-4636-9b2e-6b696361645f,rev?*%
%TF.SameCoordinates,Original*%
%TF.FileFunction,Copper,L1,Top*%
%TF.FilePolarity,Positive*%
%FSLAX46Y46*%
G04 Gerber Fmt 4.6, Leading zero omitted, Abs format (unit mm)*
G04 Created by KiCad (PCBNEW 5.99.0-unknown-8eca23aabe~115~ubuntu20.04.1) date 2021-02-02 11:51:54*
%MOMM*%
%LPD*%
G01*
G04 APERTURE LIST*
G04 Aperture macros list*
%AMRoundRect*
0 Rectangle with rounded corners*
0 $1 Rounding radius*
0 $2 $3 $4 $5 $6 $7 $8 $9 X,Y pos of 4 corners*
0 Add a 4 corners polygon primitive as box body*
4,1,4,$2,$3,$4,$5,$6,$7,$8,$9,$2,$3,0*
0 Add four circle primitives for the rounded corners*
1,1,$1+$1,$2,$3*
1,1,$1+$1,$4,$5*
1,1,$1+$1,$6,$7*
1,1,$1+$1,$8,$9*
0 Add four rect primitives between the rounded corners*
20,1,$1+$1,$2,$3,$4,$5,0*
20,1,$1+$1,$4,$5,$6,$7,0*
20,1,$1+$1,$6,$7,$8,$9,0*
20,1,$1+$1,$8,$9,$2,$3,0*%
G04 Aperture macros list end*
%TA.AperFunction,SMDPad,CuDef*%
%ADD10RoundRect,0.135000X-0.226274X-0.035355X-0.035355X-0.226274X0.226274X0.035355X0.035355X0.226274X0*%
%TD*%
%TA.AperFunction,ComponentPad*%
%ADD11R,1.700000X1.700000*%
%TD*%
%TA.AperFunction,ComponentPad*%
%ADD12O,1.700000X1.700000*%
%TD*%
%TA.AperFunction,ComponentPad*%
%ADD13C,0.600000*%
%TD*%
%TA.AperFunction,ComponentPad*%
%ADD14RoundRect,0.381000X-0.381000X-1.019000X0.381000X-1.019000X0.381000X1.019000X-0.381000X1.019000X0*%
%TD*%
%TA.AperFunction,SMDPad,CuDef*%
%ADD15RoundRect,0.135000X0.185000X-0.135000X0.185000X0.135000X-0.185000X0.135000X-0.185000X-0.135000X0*%
%TD*%
%TA.AperFunction,SMDPad,CuDef*%
%ADD16RoundRect,0.135000X0.035355X-0.226274X0.226274X-0.035355X-0.035355X0.226274X-0.226274X0.035355X0*%
%TD*%
%TA.AperFunction,ComponentPad*%
%ADD17RoundRect,0.381000X0.381000X1.019000X-0.381000X1.019000X-0.381000X-1.019000X0.381000X-1.019000X0*%
%TD*%
%TA.AperFunction,ComponentPad*%
%ADD18RoundRect,0.381000X1.019000X-0.381000X1.019000X0.381000X-1.019000X0.381000X-1.019000X-0.381000X0*%
%TD*%
%TA.AperFunction,SMDPad,CuDef*%
%ADD19R,1.900000X0.300000*%
%TD*%
%TA.AperFunction,ComponentPad*%
%ADD20C,1.900000*%
%TD*%
%TA.AperFunction,ViaPad*%
%ADD21C,0.600000*%
%TD*%
%TA.AperFunction,Conductor*%
%ADD22C,0.250000*%
%TD*%
%TA.AperFunction,Conductor*%
%ADD23C,0.130000*%
%TD*%
%TA.AperFunction,Conductor*%
%ADD24C,0.200000*%
%TD*%
%TA.AperFunction,Conductor*%
%ADD25C,0.300000*%
%TD*%
G04 APERTURE END LIST*
D10*
%TO.P,R2,1*%
%TO.N,/PICO_D2-*%
X156039376Y-79439376D03*
%TO.P,R2,2*%
%TO.N,/D2-*%
X156760624Y-80160624D03*
%TD*%
D11*
%TO.P,J5,1,Pin_1*%
%TO.N,+5V*%
X159900000Y-94800000D03*
D12*
%TO.P,J5,2,Pin_2*%
%TO.N,GND*%
X162440000Y-94800000D03*
%TD*%
D13*
%TO.P,J1,1,Pin_1*%
%TO.N,/PICO_D0+*%
X142840000Y-95500000D03*
D14*
X142840000Y-94600000D03*
%TO.P,J1,2,Pin_2*%
%TO.N,/PICO_D0-*%
X145380000Y-94600000D03*
D13*
X145380000Y-95500000D03*
%TO.P,J1,3,Pin_3*%
%TO.N,GND*%
X147920000Y-95500000D03*
D14*
X147920000Y-94600000D03*
%TO.P,J1,4,Pin_4*%
%TO.N,/PICO_CK+*%
X150460000Y-94600000D03*
D13*
X150460000Y-95500000D03*
%TO.P,J1,5,Pin_5*%
%TO.N,/PICO_CK-*%
X153000000Y-95500000D03*
D14*
X153000000Y-94600000D03*
%TD*%
D15*
%TO.P,R8,1*%
%TO.N,/PICO_CK-*%
X157250000Y-87810000D03*
%TO.P,R8,2*%
%TO.N,/CK-*%
X157250000Y-86790000D03*
%TD*%
D16*
%TO.P,R6,1*%
%TO.N,/PICO_D0-*%
X156139376Y-84860624D03*
%TO.P,R6,2*%
%TO.N,/D0-*%
X156860624Y-84139376D03*
%TD*%
D10*
%TO.P,R1,1*%
%TO.N,/PICO_D2+*%
X156739376Y-78739376D03*
%TO.P,R1,2*%
%TO.N,/D2+*%
X157460624Y-79460624D03*
%TD*%
D15*
%TO.P,R7,1*%
%TO.N,/PICO_CK+*%
X156300000Y-87810000D03*
%TO.P,R7,2*%
%TO.N,/CK+*%
X156300000Y-86790000D03*
%TD*%
D10*
%TO.P,R3,1*%
%TO.N,/PICO_D1+*%
X156039376Y-80789376D03*
%TO.P,R3,2*%
%TO.N,/D1+*%
X156760624Y-81510624D03*
%TD*%
D13*
%TO.P,J2,1,Pin_1*%
%TO.N,/PICO_D2+*%
X153000000Y-74500000D03*
D17*
X153000000Y-75400000D03*
%TO.P,J2,2,Pin_2*%
%TO.N,/PICO_D2-*%
X150460000Y-75400000D03*
D13*
X150460000Y-74500000D03*
%TO.P,J2,3,Pin_3*%
%TO.N,GND*%
X147920000Y-74500000D03*
D17*
X147920000Y-75400000D03*
D13*
%TO.P,J2,4,Pin_4*%
%TO.N,/PICO_D1+*%
X145380000Y-74500000D03*
D17*
X145380000Y-75400000D03*
%TO.P,J2,5,Pin_5*%
%TO.N,/PICO_D1-*%
X142840000Y-75400000D03*
D13*
X142840000Y-74500000D03*
%TD*%
%TO.P,J3,1,Pin_1*%
%TO.N,unconnected-(J3-Pad1)*%
X154400000Y-87540000D03*
D18*
X153500000Y-87540000D03*
D13*
%TO.P,J3,2,Pin_2*%
%TO.N,GND*%
X154400000Y-85000000D03*
D18*
X153500000Y-85000000D03*
D13*
%TO.P,J3,3,Pin_3*%
%TO.N,unconnected-(J3-Pad3)*%
X154400000Y-82460000D03*
D18*
X153500000Y-82460000D03*
%TD*%
D16*
%TO.P,R5,1*%
%TO.N,/PICO_D0+*%
X155439376Y-84160624D03*
%TO.P,R5,2*%
%TO.N,/D0+*%
X156160624Y-83439376D03*
%TD*%
D19*
%TO.P,J4,1,D2+*%
%TO.N,/D2+*%
X158800000Y-80250000D03*
%TO.P,J4,2,D2S*%
%TO.N,GND*%
X158800000Y-80750000D03*
%TO.P,J4,3,D2-*%
%TO.N,/D2-*%
X158800000Y-81250000D03*
%TO.P,J4,4,D1+*%
%TO.N,/D1+*%
X158800000Y-81750000D03*
%TO.P,J4,5,D1S*%
%TO.N,GND*%
X158800000Y-82250000D03*
%TO.P,J4,6,D1-*%
%TO.N,/D1-*%
X158800000Y-82750000D03*
%TO.P,J4,7,D0+*%
%TO.N,/D0+*%
X158800000Y-83250000D03*
%TO.P,J4,8,D0S*%
%TO.N,GND*%
X158800000Y-83750000D03*
%TO.P,J4,9,D0-*%
%TO.N,/D0-*%
X158800000Y-84250000D03*
%TO.P,J4,10,CK+*%
%TO.N,/CK+*%
X158800000Y-84750000D03*
%TO.P,J4,11,CKS*%
%TO.N,GND*%
X158800000Y-85250000D03*
%TO.P,J4,12,CK-*%
%TO.N,/CK-*%
X158800000Y-85750000D03*
%TO.P,J4,13,CEC*%
%TO.N,unconnected-(J4-Pad13)*%
X158800000Y-86250000D03*
%TO.P,J4,14,UTILITY*%
%TO.N,unconnected-(J4-Pad14)*%
X158800000Y-86750000D03*
%TO.P,J4,15,SCL*%
%TO.N,unconnected-(J4-Pad15)*%
X158800000Y-87250000D03*
%TO.P,J4,16,SDA*%
%TO.N,unconnected-(J4-Pad16)*%
X158800000Y-87750000D03*
%TO.P,J4,17,GND*%
%TO.N,GND*%
X158800000Y-88250000D03*
%TO.P,J4,18,+5V*%
%TO.N,+5V*%
X158800000Y-88750000D03*
%TO.P,J4,19,HPD*%
%TO.N,unconnected-(J4-Pad19)*%
X158800000Y-89250000D03*
D20*
%TO.P,J4,SH,SH*%
%TO.N,GND*%
X164600000Y-77150000D03*
X159700000Y-77750000D03*
X159700000Y-92250000D03*
X164600000Y-92850000D03*
%TD*%
D10*
%TO.P,R4,1*%
%TO.N,/PICO_D1-*%
X155339376Y-81489376D03*
%TO.P,R4,2*%
%TO.N,/D1-*%
X156060624Y-82210624D03*
%TD*%
D21*
%TO.N,GND*%
X155350000Y-82600000D03*
X143260000Y-77370000D03*
X156010000Y-89470000D03*
X158440000Y-79620000D03*
X154500000Y-86300000D03*
X150950000Y-92570000D03*
X160250000Y-83750000D03*
X157430000Y-80520000D03*
X157540000Y-89750000D03*
X160250000Y-82250000D03*
X160250000Y-80750000D03*
X160250000Y-88250000D03*
X157450000Y-82250000D03*
X154800000Y-74250000D03*
X152600000Y-92600000D03*
X157500000Y-83750000D03*
X154600000Y-81200000D03*
X143300000Y-92500000D03*
X142300000Y-85000000D03*
X154950000Y-95800000D03*
X144900000Y-92500000D03*
X152670000Y-77280000D03*
X155250000Y-79600000D03*
X158200000Y-74250000D03*
X154500000Y-83700000D03*
X160250000Y-85250000D03*
X161820000Y-90350000D03*
X157500000Y-85300000D03*
X154500000Y-88800000D03*
X160590000Y-90340000D03*
X158100000Y-95800000D03*
X144990000Y-77350000D03*
X150950000Y-77440000D03*
%TD*%
D22*
%TO.N,/PICO_CK-*%
X153000000Y-93900000D02*
X151920000Y-92820000D01*
X151920000Y-92348702D02*
X152378702Y-91890000D01*
X151920000Y-92820000D02*
X151920000Y-92348702D01*
X155178702Y-91890000D02*
X156965000Y-90103702D01*
X156965000Y-90103702D02*
X156965000Y-88095000D01*
X153000000Y-93900000D02*
X153168702Y-93900000D01*
X152378702Y-91890000D02*
X155178702Y-91890000D01*
X156965000Y-88095000D02*
X157250000Y-87810000D01*
%TO.N,/PICO_CK+*%
X150460000Y-93900000D02*
X151540000Y-92820000D01*
X155021298Y-91510000D02*
X156585000Y-89946298D01*
X151540000Y-92191298D02*
X152221298Y-91510000D01*
X156585000Y-89946298D02*
X156585000Y-88095000D01*
X151540000Y-92820000D02*
X151540000Y-92191298D01*
X156585000Y-88095000D02*
X156300000Y-87810000D01*
X152221298Y-91510000D02*
X155021298Y-91510000D01*
D23*
%TO.N,GND*%
X154400000Y-85000000D02*
X154500000Y-85100000D01*
X154400000Y-85000000D02*
X154500000Y-84900000D01*
X147920000Y-76100000D02*
X147920000Y-77180000D01*
X147920000Y-93900000D02*
X147920000Y-92870000D01*
D24*
X154500000Y-85100000D02*
X154500000Y-86300000D01*
X154500000Y-84900000D02*
X154500000Y-83700000D01*
D22*
%TO.N,/PICO_D0-*%
X155540000Y-89128702D02*
X155540000Y-85210000D01*
X154178702Y-90490000D02*
X155540000Y-89128702D01*
X155889376Y-84860624D02*
X156139376Y-84860624D01*
X144300000Y-92068702D02*
X145878702Y-90490000D01*
X145878702Y-90490000D02*
X154178702Y-90490000D01*
X145380000Y-93900000D02*
X144300000Y-92820000D01*
X144300000Y-92820000D02*
X144300000Y-92068702D01*
X155540000Y-85210000D02*
X155889376Y-84860624D01*
%TO.N,/PICO_D0+*%
X143920000Y-92820000D02*
X143920000Y-91911298D01*
X155500000Y-84712570D02*
X155500000Y-84221248D01*
X155500000Y-84221248D02*
X155439376Y-84160624D01*
X155159980Y-88971318D02*
X155159980Y-85052590D01*
X143920000Y-91911298D02*
X145721298Y-90110000D01*
X145721298Y-90110000D02*
X154021298Y-90110000D01*
X142840000Y-93900000D02*
X143920000Y-92820000D01*
X155159980Y-85052590D02*
X155500000Y-84712570D01*
X154021298Y-90110000D02*
X155159980Y-88971318D01*
%TO.N,/PICO_D1-*%
X142840000Y-76100000D02*
X143920000Y-77180000D01*
X143920000Y-77688702D02*
X146571298Y-80340000D01*
X154621299Y-80340000D02*
X155339376Y-81058077D01*
X146571298Y-80340000D02*
X154621299Y-80340000D01*
X143920000Y-77180000D02*
X143920000Y-77688702D01*
X155339376Y-81058077D02*
X155339376Y-81489376D01*
%TO.N,/PICO_D1+*%
X155608077Y-80789376D02*
X156039376Y-80789376D01*
X154778701Y-79960000D02*
X155608077Y-80789376D01*
X144300000Y-77531298D02*
X146728702Y-79960000D01*
X144300000Y-77180000D02*
X144300000Y-77531298D01*
X146728702Y-79960000D02*
X154778701Y-79960000D01*
X145380000Y-76100000D02*
X144300000Y-77180000D01*
%TO.N,/PICO_D2-*%
X156039376Y-79008077D02*
X156039376Y-79439376D01*
X155821299Y-78790000D02*
X156039376Y-79008077D01*
X151540000Y-77180000D02*
X151540000Y-77558702D01*
X150460000Y-76100000D02*
X151540000Y-77180000D01*
X151540000Y-77558702D02*
X152771298Y-78790000D01*
X152771298Y-78790000D02*
X155821299Y-78790000D01*
%TO.N,/PICO_D2+*%
X151920000Y-77180000D02*
X151920000Y-77401298D01*
X151920000Y-77401298D02*
X152928702Y-78410000D01*
X156308077Y-78739376D02*
X156739376Y-78739376D01*
X152928702Y-78410000D02*
X155978701Y-78410000D01*
X153000000Y-76100000D02*
X151920000Y-77180000D01*
X155978701Y-78410000D02*
X156308077Y-78739376D01*
%TO.N,/D2+*%
X157460624Y-79689207D02*
X158021417Y-80250000D01*
X157460624Y-79460624D02*
X157460624Y-79689207D01*
X158021417Y-80250000D02*
X158800000Y-80250000D01*
%TO.N,/D2-*%
X156760624Y-80160624D02*
X156967959Y-80160624D01*
X156874989Y-80786406D02*
X157163594Y-81075011D01*
X157605011Y-81075011D02*
X157780000Y-81250000D01*
X156967959Y-80160624D02*
X156874989Y-80253594D01*
X156874989Y-80253594D02*
X156874989Y-80786406D01*
X157163594Y-81075011D02*
X157605011Y-81075011D01*
X157780000Y-81250000D02*
X158800000Y-81250000D01*
%TO.N,/D1+*%
X156760624Y-81510624D02*
X156944989Y-81694989D01*
X157716406Y-81694989D02*
X157771417Y-81750000D01*
X156944989Y-81694989D02*
X157716406Y-81694989D01*
X157771417Y-81750000D02*
X158800000Y-81750000D01*
%TO.N,/D1-*%
X157716406Y-82805011D02*
X157771417Y-82750000D01*
X156491923Y-82210624D02*
X157086310Y-82805011D01*
X156060624Y-82210624D02*
X156491923Y-82210624D01*
X157771417Y-82750000D02*
X158800000Y-82750000D01*
X157086310Y-82805011D02*
X157716406Y-82805011D01*
%TO.N,/D0+*%
X157760022Y-83250000D02*
X157705011Y-83194989D01*
X157205011Y-83194989D02*
X156960624Y-83439376D01*
X156960624Y-83439376D02*
X156160624Y-83439376D01*
X158800000Y-83250000D02*
X157760022Y-83250000D01*
X157705011Y-83194989D02*
X157205011Y-83194989D01*
%TO.N,/D0-*%
X157183594Y-84305011D02*
X157394989Y-84305011D01*
X157771417Y-84250000D02*
X158800000Y-84250000D01*
X157716406Y-84305011D02*
X157771417Y-84250000D01*
X156860624Y-84139376D02*
X157017959Y-84139376D01*
X157183594Y-84305011D02*
X157716406Y-84305011D01*
X157017959Y-84139376D02*
X157183594Y-84305011D01*
%TO.N,/CK+*%
X156939299Y-85039299D02*
X156939299Y-85660701D01*
X156300000Y-86790000D02*
X156600000Y-86490000D01*
X157233599Y-84744999D02*
X158794999Y-84744999D01*
X156939299Y-85660701D02*
X156600000Y-86000000D01*
X158794999Y-84744999D02*
X158800000Y-84750000D01*
X156939299Y-85039299D02*
X157233599Y-84744999D01*
X156600000Y-86490000D02*
X156600000Y-86000000D01*
%TO.N,/CK-*%
X157250000Y-86790000D02*
X157000000Y-86540000D01*
X157871402Y-85750000D02*
X158800000Y-85750000D01*
X157766401Y-85855001D02*
X157871402Y-85750000D01*
X157000000Y-86540000D02*
X157000000Y-86200000D01*
X157000000Y-86200000D02*
X157344999Y-85855001D01*
X157344999Y-85855001D02*
X157766401Y-85855001D01*
D25*
%TO.N,+5V*%
X158800000Y-88750000D02*
X159904020Y-88750000D01*
X159904020Y-88750000D02*
X161220000Y-90065980D01*
X161220000Y-90065980D02*
X161220000Y-93480000D01*
X161220000Y-93480000D02*
X159900000Y-94800000D01*
%TD*%
%TA.AperFunction,Conductor*%
%TO.N,GND*%
G36*
X147073275Y-73917313D02*
G01*
X147098585Y-73961150D01*
X147089795Y-74011000D01*
X147084417Y-74019048D01*
X147034461Y-74084152D01*
X147029654Y-74092479D01*
X146974822Y-74224854D01*
X146972334Y-74234137D01*
X146958317Y-74340613D01*
X146958000Y-74345448D01*
X146958000Y-75286952D01*
X146961638Y-75296948D01*
X146966925Y-75300000D01*
X148868952Y-75300000D01*
X148878948Y-75296362D01*
X148882000Y-75291075D01*
X148882000Y-74345448D01*
X148881683Y-74340613D01*
X148867666Y-74234137D01*
X148865178Y-74224854D01*
X148810346Y-74092479D01*
X148805539Y-74084152D01*
X148755583Y-74019048D01*
X148740361Y-73970772D01*
X148759733Y-73924006D01*
X148804633Y-73900633D01*
X148814291Y-73900000D01*
X149625366Y-73900000D01*
X149672932Y-73917313D01*
X149698242Y-73961150D01*
X149689452Y-74011000D01*
X149685686Y-74016866D01*
X149614149Y-74117530D01*
X149603552Y-74132442D01*
X149601844Y-74137186D01*
X149601843Y-74137188D01*
X149576876Y-74206537D01*
X149554224Y-74269455D01*
X149547500Y-74333429D01*
X149547500Y-76455501D01*
X149562263Y-76563275D01*
X149564266Y-76567904D01*
X149564267Y-76567907D01*
X149596287Y-76641900D01*
X149620097Y-76696921D01*
X149623270Y-76700839D01*
X149623271Y-76700841D01*
X149651509Y-76735712D01*
X149711740Y-76810092D01*
X149715849Y-76813012D01*
X149715852Y-76813015D01*
X149826330Y-76891526D01*
X149830442Y-76894448D01*
X149835186Y-76896156D01*
X149835188Y-76896157D01*
X149963258Y-76942265D01*
X149967455Y-76943776D01*
X149981698Y-76945273D01*
X150029503Y-76950298D01*
X150029511Y-76950298D01*
X150031429Y-76950500D01*
X150877501Y-76950500D01*
X150879994Y-76950158D01*
X150882508Y-76949987D01*
X150882575Y-76950971D01*
X150928752Y-76960964D01*
X150941632Y-76971248D01*
X151242826Y-77272442D01*
X151264218Y-77318318D01*
X151264500Y-77324768D01*
X151264500Y-77526282D01*
X151263078Y-77540719D01*
X151259501Y-77558702D01*
X151264500Y-77583834D01*
X151264500Y-77583839D01*
X151280852Y-77666045D01*
X151302611Y-77698609D01*
X151337226Y-77750413D01*
X151341657Y-77757045D01*
X151347717Y-77761094D01*
X151356906Y-77767234D01*
X151368120Y-77776437D01*
X152553565Y-78961883D01*
X152562767Y-78973096D01*
X152572955Y-78988343D01*
X152594262Y-79002580D01*
X152594264Y-79002582D01*
X152620145Y-79019875D01*
X152663955Y-79049148D01*
X152671100Y-79050569D01*
X152671102Y-79050570D01*
X152746154Y-79065499D01*
X152746159Y-79065500D01*
X152746162Y-79065500D01*
X152746170Y-79065501D01*
X152771298Y-79070499D01*
X152789281Y-79066922D01*
X152803718Y-79065500D01*
X155639923Y-79065500D01*
X155687489Y-79082813D01*
X155712799Y-79126650D01*
X155704009Y-79176500D01*
X155692249Y-79191826D01*
X155592239Y-79291836D01*
X155547511Y-79357038D01*
X155545934Y-79363685D01*
X155545933Y-79363686D01*
X155527951Y-79439460D01*
X155522948Y-79460540D01*
X155537294Y-79565946D01*
X155582353Y-79647741D01*
X155821125Y-79886513D01*
X155886327Y-79931241D01*
X155892973Y-79932818D01*
X155892975Y-79932819D01*
X155983179Y-79954226D01*
X155983181Y-79954226D01*
X155989830Y-79955804D01*
X156034186Y-79949767D01*
X156088464Y-79942380D01*
X156088466Y-79942379D01*
X156095235Y-79941458D01*
X156177030Y-79896399D01*
X156486513Y-79586916D01*
X156531241Y-79521714D01*
X156539109Y-79488560D01*
X156554226Y-79424863D01*
X156554226Y-79424861D01*
X156555804Y-79418212D01*
X156543036Y-79324402D01*
X156553776Y-79274936D01*
X156593799Y-79243946D01*
X156633446Y-79242423D01*
X156657440Y-79248117D01*
X156683179Y-79254226D01*
X156683181Y-79254226D01*
X156689830Y-79255804D01*
X156743003Y-79248567D01*
X156788464Y-79242380D01*
X156788466Y-79242379D01*
X156795235Y-79241458D01*
X156877030Y-79196399D01*
X157186513Y-78886916D01*
X157231241Y-78821714D01*
X157232819Y-78815066D01*
X157254226Y-78724863D01*
X157254226Y-78724861D01*
X157255804Y-78718212D01*
X157244281Y-78633550D01*
X158963016Y-78633550D01*
X158964538Y-78639229D01*
X158970709Y-78645240D01*
X158975952Y-78649486D01*
X159146061Y-78763149D01*
X159151998Y-78766373D01*
X159339973Y-78847133D01*
X159346392Y-78849218D01*
X159545927Y-78894369D01*
X159552636Y-78895252D01*
X159757053Y-78903284D01*
X159763812Y-78902929D01*
X159966267Y-78873575D01*
X159972846Y-78871995D01*
X160166569Y-78806235D01*
X160172739Y-78803488D01*
X160351237Y-78703525D01*
X160356813Y-78699692D01*
X160429468Y-78639266D01*
X160434827Y-78630076D01*
X160434033Y-78625455D01*
X159709226Y-77900647D01*
X159699587Y-77896152D01*
X159693688Y-77897733D01*
X158967511Y-78623911D01*
X158963016Y-78633550D01*
X157244281Y-78633550D01*
X157241458Y-78612806D01*
X157196399Y-78531011D01*
X156957627Y-78292239D01*
X156892425Y-78247511D01*
X156885779Y-78245934D01*
X156885777Y-78245933D01*
X156795573Y-78224526D01*
X156795571Y-78224526D01*
X156788922Y-78222948D01*
X156744566Y-78228985D01*
X156690288Y-78236372D01*
X156690286Y-78236373D01*
X156683517Y-78237294D01*
X156601722Y-78282353D01*
X156598030Y-78286045D01*
X156473522Y-78410554D01*
X156427646Y-78431946D01*
X156378752Y-78418845D01*
X156368870Y-78410554D01*
X156196436Y-78238120D01*
X156187233Y-78226906D01*
X156185643Y-78224526D01*
X156177044Y-78211657D01*
X156086044Y-78150852D01*
X156071519Y-78147963D01*
X156003845Y-78134501D01*
X156003840Y-78134500D01*
X156003837Y-78134500D01*
X156003829Y-78134499D01*
X155985851Y-78130923D01*
X155985850Y-78130923D01*
X155978701Y-78129501D01*
X155964851Y-78132256D01*
X155960718Y-78133078D01*
X155946281Y-78134500D01*
X153073469Y-78134500D01*
X153025903Y-78117187D01*
X153021143Y-78112826D01*
X152251292Y-77342975D01*
X152229900Y-77297099D01*
X152243001Y-77248204D01*
X152251292Y-77238323D01*
X152371338Y-77118278D01*
X152517525Y-76972091D01*
X152563402Y-76950699D01*
X152571429Y-76950559D01*
X152571429Y-76950500D01*
X153417501Y-76950500D01*
X153525275Y-76935737D01*
X153529904Y-76933734D01*
X153529907Y-76933733D01*
X153605827Y-76900879D01*
X153658921Y-76877903D01*
X153671466Y-76867745D01*
X153768171Y-76789435D01*
X153772092Y-76786260D01*
X153775012Y-76782151D01*
X153775015Y-76782148D01*
X153853526Y-76671670D01*
X153853527Y-76671669D01*
X153856448Y-76667558D01*
X153858305Y-76662402D01*
X153904265Y-76534742D01*
X153905776Y-76530545D01*
X153910425Y-76486313D01*
X153912298Y-76468497D01*
X153912298Y-76468489D01*
X153912500Y-76466571D01*
X153912500Y-75938576D01*
X154545465Y-75938576D01*
X154545568Y-75941195D01*
X154552777Y-76124676D01*
X154556309Y-76214585D01*
X154556777Y-76217148D01*
X154556778Y-76217156D01*
X154600135Y-76454552D01*
X154605936Y-76486313D01*
X154606765Y-76488797D01*
X154606765Y-76488798D01*
X154690356Y-76739350D01*
X154693354Y-76748337D01*
X154749295Y-76860293D01*
X154787251Y-76936254D01*
X154816819Y-76995430D01*
X154818308Y-76997585D01*
X154818309Y-76997586D01*
X154972371Y-77220497D01*
X154972376Y-77220503D01*
X154973868Y-77222662D01*
X154975652Y-77224591D01*
X154975652Y-77224592D01*
X155158917Y-77422846D01*
X155161368Y-77425498D01*
X155375577Y-77599892D01*
X155511216Y-77681553D01*
X155609979Y-77741013D01*
X155609983Y-77741015D01*
X155612222Y-77742363D01*
X155866579Y-77850070D01*
X155869117Y-77850743D01*
X155869120Y-77850744D01*
X156040378Y-77896152D01*
X156133576Y-77920863D01*
X156407883Y-77953329D01*
X156533380Y-77950371D01*
X156681410Y-77946883D01*
X156681414Y-77946883D01*
X156684029Y-77946821D01*
X156686604Y-77946392D01*
X156686608Y-77946392D01*
X156953920Y-77901899D01*
X156953923Y-77901898D01*
X156956502Y-77901469D01*
X156969893Y-77897234D01*
X157217374Y-77818967D01*
X157217377Y-77818966D01*
X157219868Y-77818178D01*
X157222222Y-77817047D01*
X157222226Y-77817046D01*
X157417757Y-77723153D01*
X158545618Y-77723153D01*
X158558999Y-77927305D01*
X158560054Y-77933965D01*
X158610413Y-78132256D01*
X158612669Y-78138627D01*
X158698325Y-78324428D01*
X158701693Y-78330262D01*
X158808709Y-78481686D01*
X158817446Y-78487747D01*
X158821173Y-78487405D01*
X159549353Y-77759226D01*
X159553463Y-77750413D01*
X159846152Y-77750413D01*
X159847733Y-77756312D01*
X160571696Y-78480274D01*
X160581335Y-78484769D01*
X160585867Y-78483554D01*
X160649692Y-78406813D01*
X160653525Y-78401237D01*
X160753488Y-78222739D01*
X160756235Y-78216569D01*
X160818361Y-78033550D01*
X163863016Y-78033550D01*
X163864538Y-78039229D01*
X163870709Y-78045240D01*
X163875952Y-78049486D01*
X164046061Y-78163149D01*
X164051998Y-78166373D01*
X164239973Y-78247133D01*
X164246392Y-78249218D01*
X164445927Y-78294369D01*
X164452636Y-78295252D01*
X164657053Y-78303284D01*
X164663812Y-78302929D01*
X164866267Y-78273575D01*
X164872846Y-78271995D01*
X165066569Y-78206235D01*
X165072739Y-78203488D01*
X165251237Y-78103525D01*
X165256813Y-78099692D01*
X165329468Y-78039266D01*
X165334827Y-78030076D01*
X165334033Y-78025455D01*
X164609226Y-77300647D01*
X164599587Y-77296152D01*
X164593688Y-77297733D01*
X163867511Y-78023911D01*
X163863016Y-78033550D01*
X160818361Y-78033550D01*
X160821995Y-78022846D01*
X160823575Y-78016267D01*
X160853104Y-77812607D01*
X160853474Y-77808271D01*
X160854943Y-77752166D01*
X160854802Y-77747843D01*
X160835969Y-77542895D01*
X160834739Y-77536254D01*
X160779206Y-77339350D01*
X160776784Y-77333042D01*
X160686297Y-77149553D01*
X160682772Y-77143799D01*
X160667355Y-77123153D01*
X163445618Y-77123153D01*
X163458999Y-77327305D01*
X163460054Y-77333965D01*
X163510413Y-77532256D01*
X163512669Y-77538627D01*
X163598325Y-77724428D01*
X163601693Y-77730262D01*
X163708709Y-77881686D01*
X163717446Y-77887747D01*
X163721173Y-77887405D01*
X164449353Y-77159226D01*
X164453463Y-77150413D01*
X164746152Y-77150413D01*
X164747733Y-77156312D01*
X165471696Y-77880274D01*
X165481335Y-77884769D01*
X165485867Y-77883554D01*
X165549692Y-77806813D01*
X165553525Y-77801237D01*
X165653488Y-77622739D01*
X165656235Y-77616569D01*
X165721995Y-77422846D01*
X165723575Y-77416267D01*
X165753104Y-77212607D01*
X165753474Y-77208271D01*
X165754943Y-77152166D01*
X165754802Y-77147843D01*
X165735969Y-76942895D01*
X165734739Y-76936254D01*
X165679206Y-76739350D01*
X165676784Y-76733042D01*
X165586297Y-76549553D01*
X165582772Y-76543799D01*
X165490052Y-76419632D01*
X165481156Y-76413799D01*
X165477148Y-76414274D01*
X164750647Y-77140774D01*
X164746152Y-77150413D01*
X164453463Y-77150413D01*
X164453848Y-77149587D01*
X164452267Y-77143688D01*
X163727925Y-76419347D01*
X163718286Y-76414852D01*
X163714081Y-76415979D01*
X163633435Y-76518278D01*
X163629754Y-76523948D01*
X163534501Y-76704995D01*
X163531913Y-76711241D01*
X163471247Y-76906620D01*
X163469841Y-76913236D01*
X163445795Y-77116393D01*
X163445618Y-77123153D01*
X160667355Y-77123153D01*
X160590052Y-77019632D01*
X160581156Y-77013799D01*
X160577148Y-77014274D01*
X159850647Y-77740774D01*
X159846152Y-77750413D01*
X159553463Y-77750413D01*
X159553848Y-77749587D01*
X159552267Y-77743688D01*
X158827925Y-77019347D01*
X158818286Y-77014852D01*
X158814081Y-77015979D01*
X158733435Y-77118278D01*
X158729754Y-77123948D01*
X158634501Y-77304995D01*
X158631913Y-77311241D01*
X158571247Y-77506620D01*
X158569841Y-77513236D01*
X158545795Y-77716393D01*
X158545618Y-77723153D01*
X157417757Y-77723153D01*
X157466522Y-77699736D01*
X157468869Y-77698609D01*
X157508537Y-77672104D01*
X157696362Y-77546604D01*
X157696369Y-77546599D01*
X157698540Y-77545148D01*
X157904296Y-77360857D01*
X158082033Y-77149414D01*
X158199561Y-76960964D01*
X158226824Y-76917250D01*
X158226825Y-76917248D01*
X158228204Y-76915037D01*
X158248283Y-76869619D01*
X158965011Y-76869619D01*
X158965997Y-76874575D01*
X159690774Y-77599353D01*
X159700413Y-77603848D01*
X159706312Y-77602267D01*
X160431194Y-76877384D01*
X160435689Y-76867745D01*
X160434278Y-76862480D01*
X160405610Y-76835980D01*
X160400252Y-76831868D01*
X160227220Y-76722692D01*
X160221214Y-76719632D01*
X160031192Y-76643821D01*
X160024707Y-76641900D01*
X159824054Y-76601988D01*
X159817344Y-76601283D01*
X159612773Y-76598604D01*
X159606033Y-76599135D01*
X159404412Y-76633781D01*
X159397877Y-76635532D01*
X159205941Y-76706341D01*
X159199847Y-76709247D01*
X159024023Y-76813851D01*
X159018556Y-76817823D01*
X158970128Y-76860293D01*
X158965011Y-76869619D01*
X158248283Y-76869619D01*
X158339892Y-76662402D01*
X158414870Y-76396551D01*
X158431919Y-76269619D01*
X163865011Y-76269619D01*
X163865997Y-76274575D01*
X164590774Y-76999353D01*
X164600413Y-77003848D01*
X164606312Y-77002267D01*
X165331194Y-76277384D01*
X165335689Y-76267745D01*
X165334278Y-76262480D01*
X165305610Y-76235980D01*
X165300252Y-76231868D01*
X165127220Y-76122692D01*
X165121214Y-76119632D01*
X164931192Y-76043821D01*
X164924707Y-76041900D01*
X164724054Y-76001988D01*
X164717344Y-76001283D01*
X164512773Y-75998604D01*
X164506033Y-75999135D01*
X164304412Y-76033781D01*
X164297877Y-76035532D01*
X164105941Y-76106341D01*
X164099847Y-76109247D01*
X163924023Y-76213851D01*
X163918556Y-76217823D01*
X163870128Y-76260293D01*
X163865011Y-76269619D01*
X158431919Y-76269619D01*
X158451641Y-76122787D01*
X158455500Y-76000000D01*
X158455366Y-75998106D01*
X158436177Y-75727088D01*
X158436176Y-75727081D01*
X158435991Y-75724468D01*
X158377854Y-75454433D01*
X158357129Y-75398254D01*
X158283153Y-75197734D01*
X158283152Y-75197732D01*
X158282249Y-75195284D01*
X158151083Y-74952191D01*
X157986974Y-74730004D01*
X157793195Y-74533158D01*
X157573614Y-74365579D01*
X157332611Y-74230611D01*
X157074996Y-74130947D01*
X157072453Y-74130358D01*
X157072448Y-74130356D01*
X156808454Y-74069165D01*
X156808452Y-74069165D01*
X156805908Y-74068575D01*
X156803308Y-74068350D01*
X156803303Y-74068349D01*
X156565158Y-74047724D01*
X156519263Y-74026372D01*
X156518128Y-74023944D01*
X156494777Y-74043537D01*
X156473534Y-74047888D01*
X156254911Y-74059920D01*
X155983996Y-74113808D01*
X155846993Y-74161920D01*
X155725848Y-74204463D01*
X155725845Y-74204464D01*
X155723377Y-74205331D01*
X155721057Y-74206536D01*
X155721055Y-74206537D01*
X155609658Y-74264403D01*
X155478254Y-74332662D01*
X155432191Y-74365579D01*
X155255649Y-74491737D01*
X155255645Y-74491740D01*
X155253517Y-74493261D01*
X155251629Y-74495062D01*
X155251623Y-74495067D01*
X155055544Y-74682118D01*
X155053651Y-74683924D01*
X154882644Y-74900846D01*
X154743907Y-75139699D01*
X154742924Y-75142126D01*
X154742923Y-75142128D01*
X154678978Y-75300000D01*
X154640209Y-75395717D01*
X154573619Y-75663793D01*
X154573353Y-75666386D01*
X154573353Y-75666388D01*
X154567402Y-75724468D01*
X154545465Y-75938576D01*
X153912500Y-75938576D01*
X153912500Y-74344499D01*
X153897737Y-74236725D01*
X153895645Y-74231889D01*
X153854663Y-74137188D01*
X153839903Y-74103079D01*
X153773087Y-74020567D01*
X153756608Y-73972708D01*
X153774749Y-73925452D01*
X153819021Y-73900911D01*
X153830597Y-73900000D01*
X156469468Y-73900000D01*
X156517034Y-73917313D01*
X156521137Y-73924419D01*
X156552328Y-73902538D01*
X156571543Y-73900000D01*
X166451434Y-73900000D01*
X166467645Y-73902360D01*
X166467658Y-73902282D01*
X166472450Y-73903047D01*
X166477097Y-73904430D01*
X166481943Y-73904563D01*
X166481944Y-73904563D01*
X166494869Y-73904917D01*
X166532278Y-73905943D01*
X166539911Y-73906549D01*
X166543638Y-73907040D01*
X166553126Y-73908928D01*
X166623060Y-73927667D01*
X166640906Y-73935059D01*
X166702290Y-73970498D01*
X166717617Y-73982258D01*
X166767740Y-74032381D01*
X166779498Y-74047704D01*
X166814944Y-74109096D01*
X166822334Y-74126939D01*
X166841075Y-74196884D01*
X166842963Y-74206377D01*
X166843453Y-74210103D01*
X166844057Y-74217719D01*
X166845570Y-74272903D01*
X166846953Y-74277550D01*
X166847718Y-74282342D01*
X166847640Y-74282355D01*
X166850000Y-74298566D01*
X166850000Y-95701434D01*
X166847640Y-95717645D01*
X166847718Y-95717658D01*
X166846953Y-95722450D01*
X166845570Y-95727097D01*
X166845437Y-95731943D01*
X166845437Y-95731944D01*
X166844057Y-95782276D01*
X166843453Y-95789897D01*
X166842963Y-95793623D01*
X166841075Y-95803116D01*
X166825080Y-95862812D01*
X166822334Y-95873060D01*
X166814944Y-95890904D01*
X166779500Y-95952294D01*
X166767740Y-95967619D01*
X166717617Y-96017742D01*
X166702290Y-96029502D01*
X166640906Y-96064941D01*
X166623060Y-96072333D01*
X166553126Y-96091072D01*
X166543638Y-96092960D01*
X166539911Y-96093451D01*
X166532278Y-96094057D01*
X166494869Y-96095083D01*
X166481944Y-96095437D01*
X166481943Y-96095437D01*
X166477097Y-96095570D01*
X166472450Y-96096953D01*
X166467658Y-96097718D01*
X166467645Y-96097640D01*
X166451434Y-96100000D01*
X156465127Y-96100000D01*
X156427266Y-96086219D01*
X156409252Y-96098030D01*
X156392291Y-96100000D01*
X153834634Y-96100000D01*
X153787068Y-96082687D01*
X153761758Y-96038850D01*
X153770548Y-95989000D01*
X153774314Y-95983134D01*
X153853526Y-95871670D01*
X153853527Y-95871669D01*
X153856448Y-95867558D01*
X153862502Y-95850744D01*
X153904265Y-95734742D01*
X153905776Y-95730545D01*
X153909785Y-95692400D01*
X153912298Y-95668497D01*
X153912298Y-95668489D01*
X153912500Y-95666571D01*
X153912500Y-93938576D01*
X154545465Y-93938576D01*
X154545568Y-93941195D01*
X154555783Y-94201186D01*
X154556309Y-94214585D01*
X154556777Y-94217148D01*
X154556778Y-94217156D01*
X154586743Y-94381223D01*
X154605936Y-94486313D01*
X154606765Y-94488797D01*
X154606765Y-94488798D01*
X154681581Y-94713048D01*
X154693354Y-94748337D01*
X154816819Y-94995430D01*
X154818308Y-94997585D01*
X154818309Y-94997586D01*
X154972371Y-95220497D01*
X154972376Y-95220503D01*
X154973868Y-95222662D01*
X154975652Y-95224591D01*
X154975652Y-95224592D01*
X155103227Y-95362601D01*
X155161368Y-95425498D01*
X155375577Y-95599892D01*
X155482003Y-95663965D01*
X155609979Y-95741013D01*
X155609983Y-95741015D01*
X155612222Y-95742363D01*
X155866579Y-95850070D01*
X155869117Y-95850743D01*
X155869120Y-95850744D01*
X156060431Y-95901469D01*
X156133576Y-95920863D01*
X156400989Y-95952513D01*
X156428187Y-95966222D01*
X156439818Y-95956463D01*
X156463384Y-95952021D01*
X156681410Y-95946883D01*
X156681414Y-95946883D01*
X156684029Y-95946821D01*
X156686604Y-95946392D01*
X156686608Y-95946392D01*
X156953920Y-95901899D01*
X156953923Y-95901898D01*
X156956502Y-95901469D01*
X156970883Y-95896921D01*
X157217374Y-95818967D01*
X157217377Y-95818966D01*
X157219868Y-95818178D01*
X157222222Y-95817047D01*
X157222226Y-95817046D01*
X157466522Y-95699736D01*
X157468869Y-95698609D01*
X157513935Y-95668497D01*
X157696362Y-95546604D01*
X157696369Y-95546599D01*
X157698540Y-95545148D01*
X157904296Y-95360857D01*
X158082033Y-95149414D01*
X158228204Y-94915037D01*
X158339892Y-94662402D01*
X158414870Y-94396551D01*
X158451641Y-94122787D01*
X158455500Y-94000000D01*
X158453517Y-93971995D01*
X158436177Y-93727088D01*
X158436176Y-93727081D01*
X158435991Y-93724468D01*
X158377854Y-93454433D01*
X158371228Y-93436471D01*
X158283153Y-93197734D01*
X158283152Y-93197732D01*
X158282249Y-93195284D01*
X158248939Y-93133550D01*
X158963016Y-93133550D01*
X158964538Y-93139229D01*
X158970709Y-93145240D01*
X158975952Y-93149486D01*
X159146061Y-93263149D01*
X159151998Y-93266373D01*
X159339973Y-93347133D01*
X159346392Y-93349218D01*
X159545927Y-93394369D01*
X159552636Y-93395252D01*
X159757053Y-93403284D01*
X159763812Y-93402929D01*
X159966267Y-93373575D01*
X159972846Y-93371995D01*
X160166569Y-93306235D01*
X160172739Y-93303488D01*
X160351237Y-93203525D01*
X160356813Y-93199692D01*
X160429468Y-93139266D01*
X160434827Y-93130076D01*
X160434033Y-93125455D01*
X159709226Y-92400647D01*
X159699587Y-92396152D01*
X159693688Y-92397733D01*
X158967511Y-93123911D01*
X158963016Y-93133550D01*
X158248939Y-93133550D01*
X158206965Y-93055758D01*
X158152325Y-92954492D01*
X158152322Y-92954487D01*
X158151083Y-92952191D01*
X158118644Y-92908271D01*
X158056716Y-92824428D01*
X157986974Y-92730004D01*
X157793195Y-92533158D01*
X157573614Y-92365579D01*
X157332611Y-92230611D01*
X157313333Y-92223153D01*
X158545618Y-92223153D01*
X158558999Y-92427305D01*
X158560054Y-92433965D01*
X158610413Y-92632256D01*
X158612669Y-92638627D01*
X158698325Y-92824428D01*
X158701693Y-92830262D01*
X158808709Y-92981686D01*
X158817446Y-92987747D01*
X158821173Y-92987405D01*
X159549353Y-92259226D01*
X159553848Y-92249587D01*
X159552267Y-92243688D01*
X158827925Y-91519347D01*
X158818286Y-91514852D01*
X158814081Y-91515979D01*
X158733435Y-91618278D01*
X158729754Y-91623948D01*
X158634501Y-91804995D01*
X158631913Y-91811241D01*
X158571247Y-92006620D01*
X158569841Y-92013236D01*
X158545795Y-92216393D01*
X158545618Y-92223153D01*
X157313333Y-92223153D01*
X157074996Y-92130947D01*
X157072453Y-92130358D01*
X157072448Y-92130356D01*
X156808454Y-92069165D01*
X156808452Y-92069165D01*
X156805908Y-92068575D01*
X156803308Y-92068350D01*
X156803303Y-92068349D01*
X156533325Y-92044967D01*
X156533326Y-92044967D01*
X156530716Y-92044741D01*
X156254911Y-92059920D01*
X155983996Y-92113808D01*
X155832750Y-92166922D01*
X155725848Y-92204463D01*
X155725845Y-92204464D01*
X155723377Y-92205331D01*
X155721057Y-92206536D01*
X155721055Y-92206537D01*
X155600816Y-92268996D01*
X155478254Y-92332662D01*
X155432191Y-92365579D01*
X155255649Y-92491737D01*
X155255645Y-92491740D01*
X155253517Y-92493261D01*
X155251629Y-92495062D01*
X155251623Y-92495067D01*
X155056000Y-92681683D01*
X155053651Y-92683924D01*
X155017325Y-92730004D01*
X154927704Y-92843688D01*
X154882644Y-92900846D01*
X154881333Y-92903103D01*
X154747479Y-93133550D01*
X154743907Y-93139699D01*
X154742924Y-93142126D01*
X154742923Y-93142128D01*
X154659043Y-93349218D01*
X154640209Y-93395717D01*
X154573619Y-93663793D01*
X154573353Y-93666386D01*
X154573353Y-93666388D01*
X154567553Y-93722994D01*
X154545465Y-93938576D01*
X153912500Y-93938576D01*
X153912500Y-93544499D01*
X153897737Y-93436725D01*
X153894941Y-93430262D01*
X153854663Y-93337188D01*
X153839903Y-93303079D01*
X153831320Y-93292479D01*
X153767559Y-93213740D01*
X153748260Y-93189908D01*
X153744151Y-93186988D01*
X153744148Y-93186985D01*
X153633670Y-93108474D01*
X153633669Y-93108473D01*
X153629558Y-93105552D01*
X153624814Y-93103844D01*
X153624812Y-93103843D01*
X153496742Y-93057735D01*
X153492545Y-93056224D01*
X153473906Y-93054265D01*
X153430497Y-93049702D01*
X153430489Y-93049702D01*
X153428571Y-93049500D01*
X152582499Y-93049500D01*
X152580006Y-93049842D01*
X152577492Y-93050013D01*
X152577425Y-93049032D01*
X152531243Y-93039033D01*
X152518367Y-93028752D01*
X152217174Y-92727559D01*
X152195782Y-92681683D01*
X152195500Y-92675233D01*
X152195500Y-92493469D01*
X152212813Y-92445903D01*
X152217174Y-92441143D01*
X152471144Y-92187174D01*
X152517021Y-92165782D01*
X152523470Y-92165500D01*
X155146282Y-92165500D01*
X155160719Y-92166922D01*
X155178702Y-92170499D01*
X155185851Y-92169077D01*
X155185852Y-92169077D01*
X155203830Y-92165501D01*
X155203838Y-92165500D01*
X155203841Y-92165500D01*
X155203846Y-92165499D01*
X155278896Y-92150570D01*
X155286045Y-92149148D01*
X155377045Y-92088343D01*
X155387235Y-92073093D01*
X155396437Y-92061880D01*
X156088698Y-91369619D01*
X158965011Y-91369619D01*
X158965997Y-91374575D01*
X159690774Y-92099353D01*
X159700413Y-92103848D01*
X159706312Y-92102267D01*
X160431194Y-91377384D01*
X160435689Y-91367745D01*
X160434278Y-91362480D01*
X160405610Y-91335980D01*
X160400252Y-91331868D01*
X160227220Y-91222692D01*
X160221214Y-91219632D01*
X160031192Y-91143821D01*
X160024707Y-91141900D01*
X159824054Y-91101988D01*
X159817344Y-91101283D01*
X159612773Y-91098604D01*
X159606033Y-91099135D01*
X159404412Y-91133781D01*
X159397877Y-91135532D01*
X159205941Y-91206341D01*
X159199847Y-91209247D01*
X159024023Y-91313851D01*
X159018556Y-91317823D01*
X158970128Y-91360293D01*
X158965011Y-91369619D01*
X156088698Y-91369619D01*
X157136883Y-90321435D01*
X157148097Y-90312232D01*
X157157283Y-90306094D01*
X157163343Y-90302045D01*
X157177580Y-90280738D01*
X157177583Y-90280735D01*
X157213622Y-90226798D01*
X157224148Y-90211045D01*
X157240500Y-90128839D01*
X157240500Y-90128834D01*
X157245499Y-90103702D01*
X157241922Y-90085719D01*
X157240500Y-90071282D01*
X157240500Y-88358925D01*
X157645000Y-88358925D01*
X157645000Y-88396360D01*
X157645710Y-88403570D01*
X157659183Y-88471303D01*
X157664653Y-88484508D01*
X157688327Y-88519939D01*
X157700358Y-88569107D01*
X157699376Y-88575485D01*
X157694500Y-88600000D01*
X157694500Y-88900000D01*
X157706337Y-88959507D01*
X157710387Y-88965568D01*
X157712919Y-88971681D01*
X157715127Y-89022252D01*
X157712919Y-89028319D01*
X157710387Y-89034432D01*
X157706337Y-89040493D01*
X157704915Y-89047642D01*
X157695240Y-89096282D01*
X157694500Y-89100000D01*
X157694500Y-89400000D01*
X157706337Y-89459507D01*
X157740045Y-89509955D01*
X157790493Y-89543663D01*
X157797638Y-89545084D01*
X157797640Y-89545085D01*
X157846430Y-89554790D01*
X157846431Y-89554790D01*
X157850000Y-89555500D01*
X159750000Y-89555500D01*
X159753569Y-89554790D01*
X159753570Y-89554790D01*
X159802360Y-89545085D01*
X159802362Y-89545084D01*
X159809507Y-89543663D01*
X159859955Y-89509955D01*
X159893663Y-89459507D01*
X159905500Y-89400000D01*
X159905500Y-89355103D01*
X159922813Y-89307537D01*
X159966650Y-89282227D01*
X160016500Y-89291017D01*
X160031826Y-89302777D01*
X160897826Y-90168777D01*
X160919218Y-90214653D01*
X160919500Y-90221103D01*
X160919500Y-91805560D01*
X160902187Y-91853126D01*
X160858350Y-91878436D01*
X160808500Y-91869646D01*
X160779377Y-91835546D01*
X160778285Y-91836085D01*
X160686297Y-91649553D01*
X160682772Y-91643799D01*
X160590052Y-91519632D01*
X160581156Y-91513799D01*
X160577148Y-91514274D01*
X159850647Y-92240774D01*
X159846152Y-92250413D01*
X159847733Y-92256312D01*
X160571696Y-92980274D01*
X160581335Y-92984769D01*
X160585867Y-92983554D01*
X160649692Y-92906813D01*
X160653525Y-92901237D01*
X160753488Y-92722739D01*
X160756235Y-92716569D01*
X160775427Y-92660032D01*
X160807111Y-92620555D01*
X160856757Y-92610679D01*
X160901136Y-92635026D01*
X160919500Y-92683818D01*
X160919500Y-93324877D01*
X160902187Y-93372443D01*
X160897826Y-93377203D01*
X160502203Y-93772826D01*
X160456327Y-93794218D01*
X160449877Y-93794500D01*
X159050000Y-93794500D01*
X159046431Y-93795210D01*
X159046430Y-93795210D01*
X158997640Y-93804915D01*
X158997638Y-93804916D01*
X158990493Y-93806337D01*
X158940045Y-93840045D01*
X158906337Y-93890493D01*
X158904916Y-93897638D01*
X158904915Y-93897640D01*
X158896772Y-93938576D01*
X158894500Y-93950000D01*
X158894500Y-95650000D01*
X158906337Y-95709507D01*
X158940045Y-95759955D01*
X158990493Y-95793663D01*
X158997638Y-95795084D01*
X158997640Y-95795085D01*
X159046430Y-95804790D01*
X159046431Y-95804790D01*
X159050000Y-95805500D01*
X160750000Y-95805500D01*
X160753569Y-95804790D01*
X160753570Y-95804790D01*
X160802360Y-95795085D01*
X160802362Y-95795084D01*
X160809507Y-95793663D01*
X160859955Y-95759955D01*
X160893663Y-95709507D01*
X160905500Y-95650000D01*
X160905500Y-94907792D01*
X161395391Y-94907792D01*
X161402029Y-94986840D01*
X161403330Y-94993927D01*
X161458088Y-95184892D01*
X161460739Y-95191588D01*
X161551547Y-95368282D01*
X161555452Y-95374340D01*
X161678847Y-95530027D01*
X161683853Y-95535211D01*
X161835140Y-95663965D01*
X161841059Y-95668079D01*
X162014473Y-95764998D01*
X162021074Y-95767881D01*
X162210008Y-95829269D01*
X162217053Y-95830818D01*
X162327043Y-95843934D01*
X162337400Y-95841505D01*
X162340000Y-95838030D01*
X162340000Y-94913048D01*
X162338499Y-94908925D01*
X162540000Y-94908925D01*
X162540000Y-95832326D01*
X162543638Y-95842322D01*
X162547875Y-95844768D01*
X162619588Y-95839250D01*
X162626687Y-95837998D01*
X162818033Y-95784574D01*
X162824741Y-95781972D01*
X163002062Y-95692400D01*
X163008151Y-95688536D01*
X163164696Y-95566230D01*
X163169915Y-95561260D01*
X163299725Y-95410873D01*
X163303873Y-95404993D01*
X163402004Y-95232250D01*
X163404932Y-95225675D01*
X163467640Y-95037168D01*
X163469237Y-95030144D01*
X163484042Y-94912944D01*
X163481686Y-94902573D01*
X163478295Y-94900000D01*
X162553048Y-94900000D01*
X162543052Y-94903638D01*
X162540000Y-94908925D01*
X162338499Y-94908925D01*
X162336362Y-94903052D01*
X162331075Y-94900000D01*
X161407785Y-94900000D01*
X161397789Y-94903638D01*
X161395391Y-94907792D01*
X160905500Y-94907792D01*
X160905500Y-94687033D01*
X161396121Y-94687033D01*
X161398623Y-94697372D01*
X161402188Y-94700000D01*
X162326952Y-94700000D01*
X162336948Y-94696362D01*
X162340000Y-94691075D01*
X162340000Y-93767845D01*
X162338002Y-93762356D01*
X162540000Y-93762356D01*
X162540000Y-94686952D01*
X162543638Y-94696948D01*
X162548925Y-94700000D01*
X163472147Y-94700000D01*
X163482143Y-94696362D01*
X163484447Y-94692371D01*
X163475261Y-94598686D01*
X163473862Y-94591618D01*
X163416441Y-94401434D01*
X163413697Y-94394776D01*
X163320431Y-94219367D01*
X163316445Y-94213368D01*
X163190883Y-94059414D01*
X163185812Y-94054307D01*
X163032734Y-93927669D01*
X163026768Y-93923645D01*
X162852012Y-93829155D01*
X162845374Y-93826365D01*
X162655596Y-93767619D01*
X162648536Y-93766170D01*
X162552977Y-93756126D01*
X162542657Y-93758699D01*
X162540000Y-93762356D01*
X162338002Y-93762356D01*
X162336362Y-93757849D01*
X162332290Y-93755499D01*
X162245918Y-93763359D01*
X162238841Y-93764709D01*
X162048261Y-93820799D01*
X162041585Y-93823497D01*
X161865524Y-93915539D01*
X161859503Y-93919480D01*
X161704679Y-94043961D01*
X161699526Y-94049006D01*
X161571833Y-94201186D01*
X161567763Y-94207130D01*
X161472054Y-94381223D01*
X161469218Y-94387840D01*
X161409147Y-94577206D01*
X161407651Y-94584245D01*
X161396121Y-94687033D01*
X160905500Y-94687033D01*
X160905500Y-94250124D01*
X160922813Y-94202558D01*
X160927174Y-94197798D01*
X161391422Y-93733550D01*
X163863016Y-93733550D01*
X163864538Y-93739229D01*
X163870709Y-93745240D01*
X163875952Y-93749486D01*
X164046061Y-93863149D01*
X164051998Y-93866373D01*
X164239973Y-93947133D01*
X164246392Y-93949218D01*
X164445927Y-93994369D01*
X164452636Y-93995252D01*
X164657053Y-94003284D01*
X164663812Y-94002929D01*
X164866267Y-93973575D01*
X164872846Y-93971995D01*
X165066569Y-93906235D01*
X165072739Y-93903488D01*
X165251237Y-93803525D01*
X165256813Y-93799692D01*
X165329468Y-93739266D01*
X165334827Y-93730076D01*
X165334033Y-93725455D01*
X164609226Y-93000647D01*
X164599587Y-92996152D01*
X164593688Y-92997733D01*
X163867511Y-93723911D01*
X163863016Y-93733550D01*
X161391422Y-93733550D01*
X161394895Y-93730077D01*
X161398291Y-93727146D01*
X161402147Y-93725261D01*
X161432421Y-93692625D01*
X161434347Y-93690625D01*
X161451469Y-93673503D01*
X161453395Y-93670695D01*
X161455575Y-93668072D01*
X161455654Y-93668137D01*
X161458879Y-93664103D01*
X161478227Y-93643245D01*
X161483519Y-93629981D01*
X161491226Y-93615546D01*
X161499304Y-93603770D01*
X161500882Y-93597122D01*
X161500883Y-93597119D01*
X161505870Y-93576102D01*
X161509139Y-93565765D01*
X161517747Y-93544189D01*
X161519682Y-93539339D01*
X161520500Y-93530996D01*
X161520500Y-93523118D01*
X161522500Y-93506030D01*
X161523558Y-93501573D01*
X161523558Y-93501572D01*
X161525136Y-93494923D01*
X161521176Y-93465826D01*
X161520500Y-93455847D01*
X161520500Y-92823153D01*
X163445618Y-92823153D01*
X163458999Y-93027305D01*
X163460054Y-93033965D01*
X163510413Y-93232256D01*
X163512669Y-93238627D01*
X163598325Y-93424428D01*
X163601693Y-93430262D01*
X163708709Y-93581686D01*
X163717446Y-93587747D01*
X163721173Y-93587405D01*
X164449353Y-92859226D01*
X164453463Y-92850413D01*
X164746152Y-92850413D01*
X164747733Y-92856312D01*
X165471696Y-93580274D01*
X165481335Y-93584769D01*
X165485867Y-93583554D01*
X165549692Y-93506813D01*
X165553525Y-93501237D01*
X165653488Y-93322739D01*
X165656235Y-93316569D01*
X165721995Y-93122846D01*
X165723575Y-93116267D01*
X165753104Y-92912607D01*
X165753474Y-92908271D01*
X165754943Y-92852166D01*
X165754802Y-92847843D01*
X165735969Y-92642895D01*
X165734739Y-92636254D01*
X165679206Y-92439350D01*
X165676784Y-92433042D01*
X165586297Y-92249553D01*
X165582772Y-92243799D01*
X165490052Y-92119632D01*
X165481156Y-92113799D01*
X165477148Y-92114274D01*
X164750647Y-92840774D01*
X164746152Y-92850413D01*
X164453463Y-92850413D01*
X164453848Y-92849587D01*
X164452267Y-92843688D01*
X163727925Y-92119347D01*
X163718286Y-92114852D01*
X163714081Y-92115979D01*
X163633435Y-92218278D01*
X163629754Y-92223948D01*
X163534501Y-92404995D01*
X163531913Y-92411241D01*
X163471247Y-92606620D01*
X163469841Y-92613236D01*
X163445795Y-92816393D01*
X163445618Y-92823153D01*
X161520500Y-92823153D01*
X161520500Y-91969619D01*
X163865011Y-91969619D01*
X163865997Y-91974575D01*
X164590774Y-92699353D01*
X164600413Y-92703848D01*
X164606312Y-92702267D01*
X165331194Y-91977384D01*
X165335689Y-91967745D01*
X165334278Y-91962480D01*
X165305610Y-91935980D01*
X165300252Y-91931868D01*
X165127220Y-91822692D01*
X165121214Y-91819632D01*
X164931192Y-91743821D01*
X164924707Y-91741900D01*
X164724054Y-91701988D01*
X164717344Y-91701283D01*
X164512773Y-91698604D01*
X164506033Y-91699135D01*
X164304412Y-91733781D01*
X164297877Y-91735532D01*
X164105941Y-91806341D01*
X164099847Y-91809247D01*
X163924023Y-91913851D01*
X163918556Y-91917823D01*
X163870128Y-91960293D01*
X163865011Y-91969619D01*
X161520500Y-91969619D01*
X161520500Y-90119148D01*
X161520829Y-90114669D01*
X161522223Y-90110609D01*
X161521696Y-90096553D01*
X161520552Y-90066100D01*
X161520500Y-90063324D01*
X161520500Y-90039134D01*
X161519875Y-90035779D01*
X161519562Y-90032387D01*
X161519665Y-90032378D01*
X161519093Y-90027244D01*
X161518282Y-90005646D01*
X161518026Y-89998818D01*
X161512389Y-89985697D01*
X161507631Y-89970036D01*
X161506268Y-89962715D01*
X161506267Y-89962713D01*
X161505017Y-89956001D01*
X161501276Y-89949932D01*
X161490093Y-89931788D01*
X161485097Y-89922171D01*
X161475929Y-89900833D01*
X161475928Y-89900831D01*
X161473866Y-89896032D01*
X161468545Y-89889554D01*
X161462975Y-89883984D01*
X161452307Y-89870489D01*
X161446316Y-89860769D01*
X161433275Y-89850852D01*
X161422942Y-89842995D01*
X161415408Y-89836417D01*
X160154097Y-88575105D01*
X160151166Y-88571709D01*
X160149281Y-88567853D01*
X160116645Y-88537579D01*
X160114645Y-88535653D01*
X160097523Y-88518531D01*
X160094715Y-88516605D01*
X160092092Y-88514425D01*
X160092157Y-88514346D01*
X160088123Y-88511121D01*
X160067265Y-88491773D01*
X160059131Y-88488528D01*
X160054006Y-88486483D01*
X160039565Y-88478773D01*
X160033426Y-88474561D01*
X160033423Y-88474560D01*
X160027791Y-88470696D01*
X160011910Y-88466927D01*
X159969628Y-88439097D01*
X159955000Y-88394927D01*
X159955000Y-88363048D01*
X159951362Y-88353052D01*
X159946075Y-88350000D01*
X157658048Y-88350000D01*
X157648052Y-88353638D01*
X157645000Y-88358925D01*
X157240500Y-88358925D01*
X157240500Y-88304500D01*
X157257813Y-88256934D01*
X157301650Y-88231624D01*
X157314500Y-88230500D01*
X157461847Y-88230500D01*
X157465202Y-88229875D01*
X157465204Y-88229875D01*
X157532862Y-88217274D01*
X157539579Y-88216023D01*
X157545393Y-88212439D01*
X157545396Y-88212438D01*
X157628834Y-88161006D01*
X157667664Y-88150000D01*
X159941952Y-88150000D01*
X159951948Y-88146362D01*
X159955000Y-88141075D01*
X159955000Y-88103640D01*
X159954290Y-88096430D01*
X159940817Y-88028697D01*
X159935347Y-88015492D01*
X159911673Y-87980061D01*
X159899642Y-87930893D01*
X159900624Y-87924512D01*
X159904790Y-87903569D01*
X159905500Y-87900000D01*
X159905500Y-87600000D01*
X159893663Y-87540493D01*
X159889613Y-87534432D01*
X159887081Y-87528319D01*
X159884873Y-87477748D01*
X159887081Y-87471681D01*
X159889613Y-87465568D01*
X159893663Y-87459507D01*
X159902422Y-87415476D01*
X159904790Y-87403570D01*
X159904790Y-87403569D01*
X159905500Y-87400000D01*
X159905500Y-87100000D01*
X159904279Y-87093859D01*
X159898156Y-87063081D01*
X159893663Y-87040493D01*
X159889613Y-87034432D01*
X159887081Y-87028319D01*
X159884873Y-86977748D01*
X159887081Y-86971681D01*
X159889613Y-86965568D01*
X159893663Y-86959507D01*
X159905500Y-86900000D01*
X159905500Y-86600000D01*
X159893663Y-86540493D01*
X159889613Y-86534432D01*
X159887081Y-86528319D01*
X159884873Y-86477748D01*
X159887081Y-86471681D01*
X159889613Y-86465568D01*
X159893663Y-86459507D01*
X159905500Y-86400000D01*
X159905500Y-86100000D01*
X159893663Y-86040493D01*
X159889613Y-86034432D01*
X159887081Y-86028319D01*
X159884873Y-85977748D01*
X159887081Y-85971681D01*
X159889613Y-85965568D01*
X159893663Y-85959507D01*
X159905500Y-85900000D01*
X159905500Y-85600000D01*
X159900624Y-85575488D01*
X159908324Y-85525458D01*
X159911673Y-85519939D01*
X159935347Y-85484508D01*
X159940817Y-85471303D01*
X159954290Y-85403570D01*
X159955000Y-85396360D01*
X159955000Y-85363048D01*
X159951362Y-85353052D01*
X159946075Y-85350000D01*
X157658048Y-85350000D01*
X157648052Y-85353638D01*
X157645000Y-85358925D01*
X157645000Y-85396360D01*
X157645710Y-85403570D01*
X157659183Y-85471301D01*
X157661619Y-85477182D01*
X157663827Y-85527753D01*
X157633013Y-85567912D01*
X157593252Y-85579501D01*
X157377419Y-85579501D01*
X157362982Y-85578079D01*
X157352148Y-85575924D01*
X157344999Y-85574502D01*
X157337850Y-85575924D01*
X157319871Y-85579500D01*
X157319864Y-85579501D01*
X157319862Y-85579501D01*
X157319855Y-85579502D01*
X157319851Y-85579503D01*
X157303235Y-85582808D01*
X157253205Y-85575108D01*
X157219830Y-85537050D01*
X157214799Y-85510230D01*
X157214799Y-85184066D01*
X157232112Y-85136500D01*
X157236473Y-85131740D01*
X157326040Y-85042173D01*
X157371916Y-85020781D01*
X157378366Y-85020499D01*
X157571542Y-85020499D01*
X157619108Y-85037812D01*
X157644418Y-85081649D01*
X157645185Y-85101755D01*
X157645000Y-85103633D01*
X157645000Y-85136952D01*
X157648638Y-85146948D01*
X157653925Y-85150000D01*
X159941952Y-85150000D01*
X159951948Y-85146362D01*
X159955000Y-85141075D01*
X159955000Y-85103640D01*
X159954290Y-85096430D01*
X159940817Y-85028697D01*
X159935347Y-85015492D01*
X159911673Y-84980061D01*
X159899642Y-84930893D01*
X159900624Y-84924512D01*
X159904790Y-84903569D01*
X159905500Y-84900000D01*
X159905500Y-84600000D01*
X159893663Y-84540493D01*
X159889613Y-84534432D01*
X159887081Y-84528319D01*
X159884873Y-84477748D01*
X159887081Y-84471681D01*
X159889613Y-84465568D01*
X159893663Y-84459507D01*
X159905500Y-84400000D01*
X159905500Y-84100000D01*
X159900624Y-84075488D01*
X159908324Y-84025458D01*
X159911673Y-84019939D01*
X159935347Y-83984508D01*
X159940817Y-83971303D01*
X159954290Y-83903570D01*
X159955000Y-83896360D01*
X159955000Y-83863048D01*
X159951362Y-83853052D01*
X159946075Y-83850000D01*
X157658048Y-83850000D01*
X157648052Y-83853638D01*
X157645000Y-83858925D01*
X157645000Y-83896360D01*
X157645710Y-83903572D01*
X157653170Y-83941075D01*
X157645470Y-83991104D01*
X157607412Y-84024480D01*
X157580592Y-84029511D01*
X157374568Y-84029511D01*
X157327002Y-84012198D01*
X157318442Y-84003166D01*
X157317647Y-84001722D01*
X157099645Y-83783720D01*
X157078253Y-83737844D01*
X157091354Y-83688949D01*
X157110858Y-83669866D01*
X157152906Y-83641770D01*
X157152909Y-83641767D01*
X157158967Y-83637719D01*
X157169157Y-83622469D01*
X157178359Y-83611256D01*
X157297453Y-83492163D01*
X157343330Y-83470771D01*
X157349779Y-83470489D01*
X157572374Y-83470489D01*
X157613486Y-83482960D01*
X157620740Y-83487807D01*
X157650672Y-83528629D01*
X157652206Y-83563773D01*
X157645710Y-83596430D01*
X157645000Y-83603640D01*
X157645000Y-83636952D01*
X157648638Y-83646948D01*
X157653925Y-83650000D01*
X159941952Y-83650000D01*
X159951948Y-83646362D01*
X159955000Y-83641075D01*
X159955000Y-83603640D01*
X159954290Y-83596430D01*
X159940817Y-83528697D01*
X159935347Y-83515492D01*
X159911673Y-83480061D01*
X159899642Y-83430893D01*
X159900624Y-83424512D01*
X159904790Y-83403569D01*
X159905500Y-83400000D01*
X159905500Y-83100000D01*
X159893663Y-83040493D01*
X159889613Y-83034432D01*
X159887081Y-83028319D01*
X159884873Y-82977748D01*
X159887081Y-82971681D01*
X159889613Y-82965568D01*
X159893663Y-82959507D01*
X159899867Y-82928319D01*
X159904790Y-82903570D01*
X159904790Y-82903569D01*
X159905500Y-82900000D01*
X159905500Y-82600000D01*
X159900624Y-82575488D01*
X159908324Y-82525458D01*
X159911673Y-82519939D01*
X159935347Y-82484508D01*
X159940817Y-82471303D01*
X159954290Y-82403570D01*
X159955000Y-82396360D01*
X159955000Y-82363048D01*
X159951362Y-82353052D01*
X159946075Y-82350000D01*
X157658048Y-82350000D01*
X157648052Y-82353638D01*
X157645000Y-82358925D01*
X157645000Y-82396360D01*
X157645710Y-82403572D01*
X157653170Y-82441075D01*
X157645470Y-82491104D01*
X157607412Y-82524480D01*
X157580592Y-82529511D01*
X157231077Y-82529511D01*
X157183511Y-82512198D01*
X157178751Y-82507837D01*
X156800443Y-82129529D01*
X156779051Y-82083653D01*
X156792152Y-82034758D01*
X156817063Y-82012387D01*
X156876558Y-81979612D01*
X156926700Y-81971850D01*
X156944989Y-81975488D01*
X156962972Y-81971911D01*
X156977409Y-81970489D01*
X157580592Y-81970489D01*
X157628158Y-81987802D01*
X157653468Y-82031639D01*
X157653170Y-82058925D01*
X157645710Y-82096428D01*
X157645000Y-82103640D01*
X157645000Y-82136952D01*
X157648638Y-82146948D01*
X157653925Y-82150000D01*
X159941952Y-82150000D01*
X159951948Y-82146362D01*
X159955000Y-82141075D01*
X159955000Y-82103640D01*
X159954290Y-82096430D01*
X159940817Y-82028697D01*
X159935347Y-82015492D01*
X159911673Y-81980061D01*
X159899642Y-81930893D01*
X159900624Y-81924512D01*
X159904790Y-81903569D01*
X159905500Y-81900000D01*
X159905500Y-81600000D01*
X159893663Y-81540493D01*
X159889613Y-81534432D01*
X159887081Y-81528319D01*
X159884873Y-81477748D01*
X159887081Y-81471681D01*
X159889613Y-81465568D01*
X159893663Y-81459507D01*
X159905500Y-81400000D01*
X159905500Y-81100000D01*
X159900624Y-81075488D01*
X159908324Y-81025458D01*
X159911673Y-81019939D01*
X159935347Y-80984508D01*
X159940817Y-80971303D01*
X159954290Y-80903570D01*
X159955000Y-80896360D01*
X159955000Y-80863048D01*
X159951362Y-80853052D01*
X159946075Y-80850000D01*
X157785892Y-80850000D01*
X157744779Y-80837528D01*
X157718417Y-80819913D01*
X157718412Y-80819911D01*
X157712354Y-80815863D01*
X157690611Y-80811538D01*
X157630155Y-80799512D01*
X157630150Y-80799511D01*
X157630147Y-80799511D01*
X157630139Y-80799510D01*
X157612161Y-80795934D01*
X157612160Y-80795934D01*
X157605011Y-80794512D01*
X157597862Y-80795934D01*
X157587028Y-80798089D01*
X157572591Y-80799511D01*
X157308361Y-80799511D01*
X157260795Y-80782198D01*
X157256035Y-80777837D01*
X157172163Y-80693965D01*
X157150771Y-80648089D01*
X157150489Y-80641639D01*
X157150489Y-80403421D01*
X157166597Y-80359164D01*
X157166302Y-80358967D01*
X157167109Y-80357760D01*
X157167110Y-80357758D01*
X157180539Y-80337660D01*
X157180541Y-80337658D01*
X157180546Y-80337651D01*
X157181076Y-80336858D01*
X157190274Y-80325651D01*
X157207761Y-80308164D01*
X157252489Y-80242962D01*
X157254067Y-80236314D01*
X157275474Y-80146111D01*
X157275474Y-80146109D01*
X157277052Y-80139460D01*
X157268189Y-80074342D01*
X157278929Y-80024876D01*
X157318952Y-79993886D01*
X157369532Y-79995873D01*
X157393839Y-80012037D01*
X157672826Y-80291024D01*
X157694218Y-80336900D01*
X157694500Y-80343350D01*
X157694500Y-80400000D01*
X157695210Y-80403569D01*
X157699376Y-80424512D01*
X157691676Y-80474542D01*
X157688327Y-80480061D01*
X157664653Y-80515492D01*
X157659183Y-80528697D01*
X157645710Y-80596430D01*
X157645000Y-80603640D01*
X157645000Y-80636952D01*
X157648638Y-80646948D01*
X157653925Y-80650000D01*
X159941952Y-80650000D01*
X159951948Y-80646362D01*
X159955000Y-80641075D01*
X159955000Y-80603640D01*
X159954290Y-80596430D01*
X159940817Y-80528697D01*
X159935347Y-80515492D01*
X159911673Y-80480061D01*
X159899642Y-80430893D01*
X159900624Y-80424512D01*
X159904790Y-80403569D01*
X159905500Y-80400000D01*
X159905500Y-80100000D01*
X159901181Y-80078286D01*
X159895085Y-80047640D01*
X159895084Y-80047638D01*
X159893663Y-80040493D01*
X159859955Y-79990045D01*
X159809507Y-79956337D01*
X159802362Y-79954916D01*
X159802360Y-79954915D01*
X159753570Y-79945210D01*
X159753569Y-79945210D01*
X159750000Y-79944500D01*
X158136184Y-79944500D01*
X158088618Y-79927187D01*
X158083858Y-79922826D01*
X157890805Y-79729773D01*
X157869413Y-79683897D01*
X157882514Y-79635002D01*
X157890804Y-79625123D01*
X157905344Y-79610582D01*
X157905349Y-79610576D01*
X157907761Y-79608164D01*
X157952489Y-79542962D01*
X157957532Y-79521714D01*
X157975474Y-79446111D01*
X157975474Y-79446109D01*
X157977052Y-79439460D01*
X157962706Y-79334054D01*
X157917647Y-79252259D01*
X157678875Y-79013487D01*
X157613673Y-78968759D01*
X157607027Y-78967182D01*
X157607025Y-78967181D01*
X157516821Y-78945774D01*
X157516819Y-78945774D01*
X157510170Y-78944196D01*
X157465814Y-78950233D01*
X157411536Y-78957620D01*
X157411534Y-78957621D01*
X157404765Y-78958542D01*
X157322970Y-79003601D01*
X157013487Y-79313084D01*
X156968759Y-79378286D01*
X156967182Y-79384933D01*
X156967181Y-79384934D01*
X156949239Y-79460540D01*
X156944196Y-79481788D01*
X156948726Y-79515066D01*
X156956964Y-79575597D01*
X156946224Y-79625064D01*
X156906201Y-79656054D01*
X156866554Y-79657577D01*
X156840665Y-79651433D01*
X156816821Y-79645774D01*
X156816819Y-79645774D01*
X156810170Y-79644196D01*
X156765814Y-79650233D01*
X156711536Y-79657620D01*
X156711534Y-79657621D01*
X156704765Y-79658542D01*
X156622970Y-79703601D01*
X156313487Y-80013084D01*
X156268759Y-80078286D01*
X156267182Y-80084933D01*
X156267181Y-80084934D01*
X156252663Y-80146111D01*
X156244196Y-80181788D01*
X156245118Y-80188561D01*
X156247652Y-80207182D01*
X156236912Y-80256648D01*
X156196888Y-80287638D01*
X156157241Y-80289161D01*
X156095573Y-80274526D01*
X156095571Y-80274526D01*
X156088922Y-80272948D01*
X156044566Y-80278985D01*
X155990288Y-80286372D01*
X155990286Y-80286373D01*
X155983517Y-80287294D01*
X155901722Y-80332353D01*
X155773522Y-80460553D01*
X155727646Y-80481945D01*
X155678751Y-80468844D01*
X155668870Y-80460553D01*
X154996436Y-79788120D01*
X154987233Y-79776906D01*
X154981093Y-79767717D01*
X154977044Y-79761657D01*
X154886044Y-79700852D01*
X154871519Y-79697963D01*
X154803845Y-79684501D01*
X154803840Y-79684500D01*
X154803837Y-79684500D01*
X154803829Y-79684499D01*
X154785851Y-79680923D01*
X154785850Y-79680923D01*
X154778701Y-79679501D01*
X154771552Y-79680923D01*
X154760718Y-79683078D01*
X154746281Y-79684500D01*
X146873470Y-79684500D01*
X146825904Y-79667187D01*
X146821144Y-79662826D01*
X144597174Y-77438857D01*
X144575782Y-77392981D01*
X144575500Y-77386531D01*
X144575500Y-77324767D01*
X144592813Y-77277201D01*
X144597174Y-77272441D01*
X144897525Y-76972091D01*
X144943402Y-76950699D01*
X144951429Y-76950559D01*
X144951429Y-76950500D01*
X145797501Y-76950500D01*
X145905275Y-76935737D01*
X145909904Y-76933734D01*
X145909907Y-76933733D01*
X145985827Y-76900879D01*
X146038921Y-76877903D01*
X146051466Y-76867745D01*
X146148171Y-76789435D01*
X146152092Y-76786260D01*
X146155012Y-76782151D01*
X146155015Y-76782148D01*
X146233526Y-76671670D01*
X146233527Y-76671669D01*
X146236448Y-76667558D01*
X146238305Y-76662402D01*
X146284265Y-76534742D01*
X146285776Y-76530545D01*
X146290425Y-76486313D01*
X146292298Y-76468497D01*
X146292298Y-76468489D01*
X146292500Y-76466571D01*
X146292500Y-75508925D01*
X146958000Y-75508925D01*
X146958000Y-76454552D01*
X146958317Y-76459387D01*
X146972334Y-76565863D01*
X146974822Y-76575146D01*
X147029654Y-76707521D01*
X147034461Y-76715848D01*
X147121680Y-76829514D01*
X147128486Y-76836320D01*
X147242152Y-76923539D01*
X147250479Y-76928346D01*
X147382854Y-76983178D01*
X147392137Y-76985666D01*
X147498613Y-76999683D01*
X147503448Y-77000000D01*
X148336552Y-77000000D01*
X148341387Y-76999683D01*
X148447863Y-76985666D01*
X148457146Y-76983178D01*
X148589521Y-76928346D01*
X148597848Y-76923539D01*
X148711514Y-76836320D01*
X148718320Y-76829514D01*
X148805539Y-76715848D01*
X148810346Y-76707521D01*
X148865178Y-76575146D01*
X148867666Y-76565863D01*
X148881683Y-76459387D01*
X148882000Y-76454552D01*
X148882000Y-75513048D01*
X148878362Y-75503052D01*
X148873075Y-75500000D01*
X146971048Y-75500000D01*
X146961052Y-75503638D01*
X146958000Y-75508925D01*
X146292500Y-75508925D01*
X146292500Y-74344499D01*
X146277737Y-74236725D01*
X146275645Y-74231889D01*
X146234663Y-74137188D01*
X146219903Y-74103079D01*
X146153087Y-74020567D01*
X146136608Y-73972708D01*
X146154749Y-73925452D01*
X146199021Y-73900911D01*
X146210597Y-73900000D01*
X147025709Y-73900000D01*
X147073275Y-73917313D01*
G37*
%TD.AperFunction*%
%TA.AperFunction,Conductor*%
G36*
X155926500Y-88161183D02*
G01*
X155934281Y-88166358D01*
X155984473Y-88204524D01*
X155991032Y-88206423D01*
X155991033Y-88206424D01*
X156069161Y-88229049D01*
X156074172Y-88230500D01*
X156235500Y-88230500D01*
X156283066Y-88247813D01*
X156308376Y-88291650D01*
X156309500Y-88304500D01*
X156309500Y-89801530D01*
X156292187Y-89849096D01*
X156287826Y-89853856D01*
X154928857Y-91212826D01*
X154882981Y-91234218D01*
X154876531Y-91234500D01*
X152253718Y-91234500D01*
X152239281Y-91233078D01*
X152228447Y-91230923D01*
X152221298Y-91229501D01*
X152214149Y-91230923D01*
X152214148Y-91230923D01*
X152196170Y-91234499D01*
X152196162Y-91234500D01*
X152196159Y-91234500D01*
X152196154Y-91234501D01*
X152121102Y-91249430D01*
X152121100Y-91249431D01*
X152113955Y-91250852D01*
X152084982Y-91270211D01*
X152044265Y-91297417D01*
X152044263Y-91297419D01*
X152044260Y-91297421D01*
X152034628Y-91303857D01*
X152022955Y-91311657D01*
X152018906Y-91317717D01*
X152012768Y-91326903D01*
X152003565Y-91338117D01*
X151368120Y-91973563D01*
X151356907Y-91982765D01*
X151341657Y-91992955D01*
X151337609Y-91999013D01*
X151326322Y-92015905D01*
X151280852Y-92083955D01*
X151264500Y-92166161D01*
X151264500Y-92166166D01*
X151259501Y-92191298D01*
X151260923Y-92198447D01*
X151263078Y-92209281D01*
X151264500Y-92223718D01*
X151264500Y-92675232D01*
X151247187Y-92722798D01*
X151242826Y-92727558D01*
X150942475Y-93027909D01*
X150896599Y-93049301D01*
X150888571Y-93049441D01*
X150888571Y-93049500D01*
X150042499Y-93049500D01*
X149934725Y-93064263D01*
X149930096Y-93066266D01*
X149930093Y-93066267D01*
X149854173Y-93099121D01*
X149801079Y-93122097D01*
X149797161Y-93125270D01*
X149797159Y-93125271D01*
X149779922Y-93139229D01*
X149687908Y-93213740D01*
X149684988Y-93217849D01*
X149684985Y-93217852D01*
X149614832Y-93316569D01*
X149603552Y-93332442D01*
X149601844Y-93337186D01*
X149601843Y-93337188D01*
X149588743Y-93373575D01*
X149554224Y-93469455D01*
X149553758Y-93473890D01*
X149547756Y-93530996D01*
X149547500Y-93533429D01*
X149547500Y-95655501D01*
X149562263Y-95763275D01*
X149564266Y-95767904D01*
X149564267Y-95767907D01*
X149592144Y-95832326D01*
X149620097Y-95896921D01*
X149686913Y-95979433D01*
X149703392Y-96027292D01*
X149685251Y-96074548D01*
X149640979Y-96099089D01*
X149629403Y-96100000D01*
X148814291Y-96100000D01*
X148766725Y-96082687D01*
X148741415Y-96038850D01*
X148750205Y-95989000D01*
X148755583Y-95980952D01*
X148805539Y-95915848D01*
X148810346Y-95907521D01*
X148865178Y-95775146D01*
X148867666Y-95765863D01*
X148881683Y-95659387D01*
X148882000Y-95654552D01*
X148882000Y-94713048D01*
X148878362Y-94703052D01*
X148873075Y-94700000D01*
X146971048Y-94700000D01*
X146961052Y-94703638D01*
X146958000Y-94708925D01*
X146958000Y-95654552D01*
X146958317Y-95659387D01*
X146972334Y-95765863D01*
X146974822Y-95775146D01*
X147029654Y-95907521D01*
X147034461Y-95915848D01*
X147084417Y-95980952D01*
X147099639Y-96029228D01*
X147080267Y-96075994D01*
X147035367Y-96099367D01*
X147025709Y-96100000D01*
X146214634Y-96100000D01*
X146167068Y-96082687D01*
X146141758Y-96038850D01*
X146150548Y-95989000D01*
X146154314Y-95983134D01*
X146233526Y-95871670D01*
X146233527Y-95871669D01*
X146236448Y-95867558D01*
X146242502Y-95850744D01*
X146284265Y-95734742D01*
X146285776Y-95730545D01*
X146289785Y-95692400D01*
X146292298Y-95668497D01*
X146292298Y-95668489D01*
X146292500Y-95666571D01*
X146292500Y-93545448D01*
X146958000Y-93545448D01*
X146958000Y-94486952D01*
X146961638Y-94496948D01*
X146966925Y-94500000D01*
X148868952Y-94500000D01*
X148878948Y-94496362D01*
X148882000Y-94491075D01*
X148882000Y-93545448D01*
X148881683Y-93540613D01*
X148867666Y-93434137D01*
X148865178Y-93424854D01*
X148810346Y-93292479D01*
X148805539Y-93284152D01*
X148718320Y-93170486D01*
X148711514Y-93163680D01*
X148597848Y-93076461D01*
X148589521Y-93071654D01*
X148457146Y-93016822D01*
X148447863Y-93014334D01*
X148341387Y-93000317D01*
X148336552Y-93000000D01*
X147503448Y-93000000D01*
X147498613Y-93000317D01*
X147392137Y-93014334D01*
X147382854Y-93016822D01*
X147250479Y-93071654D01*
X147242152Y-93076461D01*
X147128486Y-93163680D01*
X147121680Y-93170486D01*
X147034461Y-93284152D01*
X147029654Y-93292479D01*
X146974822Y-93424854D01*
X146972334Y-93434137D01*
X146958317Y-93540613D01*
X146958000Y-93545448D01*
X146292500Y-93545448D01*
X146292500Y-93544499D01*
X146277737Y-93436725D01*
X146274941Y-93430262D01*
X146234663Y-93337188D01*
X146219903Y-93303079D01*
X146211320Y-93292479D01*
X146147559Y-93213740D01*
X146128260Y-93189908D01*
X146124151Y-93186988D01*
X146124148Y-93186985D01*
X146013670Y-93108474D01*
X146013669Y-93108473D01*
X146009558Y-93105552D01*
X146004814Y-93103844D01*
X146004812Y-93103843D01*
X145876742Y-93057735D01*
X145872545Y-93056224D01*
X145853906Y-93054265D01*
X145810497Y-93049702D01*
X145810489Y-93049702D01*
X145808571Y-93049500D01*
X144962499Y-93049500D01*
X144960006Y-93049842D01*
X144957492Y-93050013D01*
X144957425Y-93049032D01*
X144911243Y-93039033D01*
X144898367Y-93028752D01*
X144597174Y-92727559D01*
X144575782Y-92681683D01*
X144575500Y-92675233D01*
X144575500Y-92213469D01*
X144592813Y-92165903D01*
X144597174Y-92161143D01*
X145971144Y-90787174D01*
X146017021Y-90765782D01*
X146023470Y-90765500D01*
X154146282Y-90765500D01*
X154160719Y-90766922D01*
X154178702Y-90770499D01*
X154185851Y-90769077D01*
X154185852Y-90769077D01*
X154203830Y-90765501D01*
X154203838Y-90765500D01*
X154203841Y-90765500D01*
X154203846Y-90765499D01*
X154278896Y-90750570D01*
X154286045Y-90749148D01*
X154377045Y-90688343D01*
X154387235Y-90673093D01*
X154396437Y-90661880D01*
X155711880Y-89346437D01*
X155723094Y-89337234D01*
X155732283Y-89331094D01*
X155738343Y-89327045D01*
X155799148Y-89236045D01*
X155815500Y-89153839D01*
X155815500Y-89153834D01*
X155820499Y-89128702D01*
X155816922Y-89110719D01*
X155815500Y-89096282D01*
X155815500Y-88225269D01*
X155832813Y-88177703D01*
X155876650Y-88152393D01*
X155926500Y-88161183D01*
G37*
%TD.AperFunction*%
%TA.AperFunction,Conductor*%
G36*
X142011000Y-76718195D02*
G01*
X142031509Y-76735712D01*
X142091740Y-76810092D01*
X142095849Y-76813012D01*
X142095852Y-76813015D01*
X142206330Y-76891526D01*
X142210442Y-76894448D01*
X142215186Y-76896156D01*
X142215188Y-76896157D01*
X142343258Y-76942265D01*
X142347455Y-76943776D01*
X142361698Y-76945273D01*
X142409503Y-76950298D01*
X142409511Y-76950298D01*
X142411429Y-76950500D01*
X143257501Y-76950500D01*
X143259994Y-76950158D01*
X143262508Y-76949987D01*
X143262575Y-76950971D01*
X143308752Y-76960964D01*
X143321632Y-76971248D01*
X143622826Y-77272442D01*
X143644218Y-77318318D01*
X143644500Y-77324768D01*
X143644500Y-77656282D01*
X143643078Y-77670719D01*
X143639501Y-77688702D01*
X143644500Y-77713834D01*
X143644500Y-77713839D01*
X143660852Y-77796045D01*
X143721657Y-77887045D01*
X143736906Y-77897234D01*
X143748120Y-77906437D01*
X146353565Y-80511883D01*
X146362767Y-80523096D01*
X146372955Y-80538343D01*
X146379015Y-80542392D01*
X146394260Y-80552579D01*
X146394263Y-80552581D01*
X146394265Y-80552583D01*
X146463956Y-80599149D01*
X146571298Y-80620500D01*
X146578447Y-80619078D01*
X146589287Y-80616922D01*
X146603723Y-80615500D01*
X154476532Y-80615500D01*
X154524098Y-80632813D01*
X154528858Y-80637174D01*
X155010553Y-81118870D01*
X155031945Y-81164747D01*
X155018844Y-81213641D01*
X155010553Y-81223522D01*
X154892239Y-81341836D01*
X154847511Y-81407038D01*
X154845934Y-81413685D01*
X154845933Y-81413686D01*
X154836756Y-81452358D01*
X154822948Y-81510540D01*
X154823870Y-81517313D01*
X154823636Y-81522096D01*
X154804020Y-81568759D01*
X154758999Y-81591897D01*
X154724658Y-81588106D01*
X154634745Y-81555736D01*
X154634744Y-81555736D01*
X154630545Y-81554224D01*
X154611906Y-81552265D01*
X154568497Y-81547702D01*
X154568489Y-81547702D01*
X154566571Y-81547500D01*
X152444499Y-81547500D01*
X152336725Y-81562263D01*
X152332096Y-81564266D01*
X152332093Y-81564267D01*
X152268245Y-81591897D01*
X152203079Y-81620097D01*
X152199161Y-81623270D01*
X152199159Y-81623271D01*
X152135201Y-81675063D01*
X152089908Y-81711740D01*
X152086988Y-81715849D01*
X152086985Y-81715852D01*
X152026419Y-81801079D01*
X152005552Y-81830442D01*
X152003844Y-81835186D01*
X152003843Y-81835188D01*
X151969664Y-81930125D01*
X151956224Y-81967455D01*
X151949500Y-82031429D01*
X151949500Y-82877501D01*
X151964263Y-82985275D01*
X151966266Y-82989904D01*
X151966267Y-82989907D01*
X151974769Y-83009554D01*
X152022097Y-83118921D01*
X152025270Y-83122839D01*
X152025271Y-83122841D01*
X152040949Y-83142202D01*
X152113740Y-83232092D01*
X152117849Y-83235012D01*
X152117852Y-83235015D01*
X152228330Y-83313526D01*
X152232442Y-83316448D01*
X152237186Y-83318156D01*
X152237188Y-83318157D01*
X152365258Y-83364265D01*
X152369455Y-83365776D01*
X152388094Y-83367735D01*
X152431503Y-83372298D01*
X152431511Y-83372298D01*
X152433429Y-83372500D01*
X154555501Y-83372500D01*
X154663275Y-83357737D01*
X154667904Y-83355734D01*
X154667907Y-83355733D01*
X154743827Y-83322879D01*
X154796921Y-83299903D01*
X154805477Y-83292975D01*
X154906171Y-83211435D01*
X154910092Y-83208260D01*
X154913012Y-83204151D01*
X154913015Y-83204148D01*
X154991526Y-83093670D01*
X154991527Y-83093669D01*
X154994448Y-83089558D01*
X155005136Y-83059873D01*
X155042265Y-82956742D01*
X155043776Y-82952545D01*
X155049299Y-82900000D01*
X155050298Y-82890497D01*
X155050298Y-82890489D01*
X155050500Y-82888571D01*
X155050500Y-82042499D01*
X155049840Y-82037683D01*
X155060539Y-81988209D01*
X155100537Y-81957186D01*
X155151118Y-81959131D01*
X155165017Y-81966622D01*
X155186327Y-81981241D01*
X155192973Y-81982818D01*
X155192975Y-81982819D01*
X155289830Y-82005804D01*
X155288995Y-82009324D01*
X155325499Y-82025499D01*
X155500000Y-82200000D01*
X155503358Y-82196642D01*
X155505252Y-82197525D01*
X155541045Y-82233319D01*
X155547302Y-82254612D01*
X155558542Y-82337194D01*
X155603601Y-82418989D01*
X155842373Y-82657761D01*
X155907575Y-82702489D01*
X155914221Y-82704066D01*
X155914223Y-82704067D01*
X156004427Y-82725474D01*
X156004429Y-82725474D01*
X156011078Y-82727052D01*
X156017850Y-82726130D01*
X156024673Y-82726464D01*
X156024586Y-82728240D01*
X156065482Y-82737116D01*
X156096475Y-82777137D01*
X156100000Y-82799703D01*
X156100000Y-82863708D01*
X156082687Y-82911274D01*
X156046346Y-82931315D01*
X156047309Y-82934228D01*
X156040823Y-82936373D01*
X156034054Y-82937294D01*
X156028072Y-82940589D01*
X156028070Y-82940590D01*
X156006369Y-82952545D01*
X155952259Y-82982353D01*
X155713487Y-83221125D01*
X155668759Y-83286327D01*
X155667182Y-83292973D01*
X155667181Y-83292975D01*
X155653645Y-83350015D01*
X155625817Y-83392298D01*
X155603229Y-83403229D01*
X155600000Y-83400000D01*
X155400000Y-83600000D01*
X155403358Y-83603358D01*
X155399087Y-83612518D01*
X155363294Y-83648311D01*
X155342000Y-83654569D01*
X155334327Y-83655613D01*
X155319577Y-83657620D01*
X155319575Y-83657621D01*
X155312806Y-83658542D01*
X155231011Y-83703601D01*
X154992239Y-83942373D01*
X154947511Y-84007575D01*
X154936299Y-84054822D01*
X154932157Y-84072274D01*
X154904329Y-84114557D01*
X154855833Y-84129061D01*
X154820595Y-84115937D01*
X154820047Y-84116886D01*
X154807521Y-84109654D01*
X154675146Y-84054822D01*
X154665863Y-84052334D01*
X154559387Y-84038317D01*
X154554552Y-84038000D01*
X153613048Y-84038000D01*
X153603052Y-84041638D01*
X153600000Y-84046925D01*
X153600000Y-85948952D01*
X153603638Y-85958948D01*
X153608925Y-85962000D01*
X154554552Y-85962000D01*
X154559387Y-85961683D01*
X154665863Y-85947666D01*
X154675146Y-85945178D01*
X154782161Y-85900851D01*
X154832732Y-85898643D01*
X154872891Y-85929458D01*
X154884480Y-85969218D01*
X154884480Y-86623272D01*
X154867167Y-86670838D01*
X154823330Y-86696148D01*
X154776611Y-86687910D01*
X154776140Y-86688811D01*
X154771669Y-86686474D01*
X154767558Y-86683552D01*
X154762814Y-86681844D01*
X154762812Y-86681843D01*
X154634742Y-86635735D01*
X154630545Y-86634224D01*
X154611906Y-86632265D01*
X154568497Y-86627702D01*
X154568489Y-86627702D01*
X154566571Y-86627500D01*
X152444499Y-86627500D01*
X152336725Y-86642263D01*
X152332096Y-86644266D01*
X152332093Y-86644267D01*
X152270692Y-86670838D01*
X152203079Y-86700097D01*
X152199161Y-86703270D01*
X152199159Y-86703271D01*
X152123857Y-86764249D01*
X152089908Y-86791740D01*
X152086988Y-86795849D01*
X152086985Y-86795852D01*
X152008474Y-86906330D01*
X152005552Y-86910442D01*
X152003844Y-86915186D01*
X152003843Y-86915188D01*
X151983504Y-86971681D01*
X151956224Y-87047455D01*
X151955758Y-87051890D01*
X151950319Y-87103640D01*
X151949500Y-87111429D01*
X151949500Y-87957501D01*
X151964263Y-88065275D01*
X152022097Y-88198921D01*
X152025270Y-88202839D01*
X152025271Y-88202841D01*
X152035946Y-88216023D01*
X152113740Y-88312092D01*
X152117849Y-88315012D01*
X152117852Y-88315015D01*
X152228330Y-88393526D01*
X152232442Y-88396448D01*
X152237186Y-88398156D01*
X152237188Y-88398157D01*
X152350903Y-88439097D01*
X152369455Y-88445776D01*
X152388094Y-88447735D01*
X152431503Y-88452298D01*
X152431511Y-88452298D01*
X152433429Y-88452500D01*
X154555501Y-88452500D01*
X154663275Y-88437737D01*
X154667904Y-88435734D01*
X154667907Y-88435733D01*
X154742230Y-88403570D01*
X154781092Y-88386753D01*
X154831621Y-88383751D01*
X154872259Y-88413931D01*
X154884480Y-88454667D01*
X154884480Y-88826550D01*
X154867167Y-88874116D01*
X154862806Y-88878876D01*
X153928857Y-89812826D01*
X153882981Y-89834218D01*
X153876531Y-89834500D01*
X145753718Y-89834500D01*
X145739281Y-89833078D01*
X145728447Y-89830923D01*
X145721298Y-89829501D01*
X145714149Y-89830923D01*
X145714148Y-89830923D01*
X145696170Y-89834499D01*
X145696162Y-89834500D01*
X145696159Y-89834500D01*
X145696154Y-89834501D01*
X145653454Y-89842995D01*
X145613955Y-89850852D01*
X145522955Y-89911657D01*
X145518906Y-89917717D01*
X145512766Y-89926906D01*
X145503563Y-89938120D01*
X143748120Y-91693563D01*
X143736907Y-91702765D01*
X143721657Y-91712955D01*
X143660852Y-91803955D01*
X143644500Y-91886161D01*
X143644500Y-91886166D01*
X143639501Y-91911298D01*
X143640923Y-91918447D01*
X143643078Y-91929281D01*
X143644500Y-91943718D01*
X143644500Y-92675232D01*
X143627187Y-92722798D01*
X143622826Y-92727558D01*
X143322475Y-93027909D01*
X143276599Y-93049301D01*
X143268571Y-93049441D01*
X143268571Y-93049500D01*
X142422499Y-93049500D01*
X142314725Y-93064263D01*
X142310096Y-93066266D01*
X142310093Y-93066267D01*
X142234173Y-93099121D01*
X142181079Y-93122097D01*
X142177161Y-93125270D01*
X142177159Y-93125271D01*
X142159922Y-93139229D01*
X142067908Y-93213740D01*
X142064986Y-93217852D01*
X142034320Y-93261004D01*
X141992654Y-93289748D01*
X141942260Y-93284985D01*
X141906717Y-93248944D01*
X141900000Y-93218138D01*
X141900000Y-84583448D01*
X151900000Y-84583448D01*
X151900000Y-85416552D01*
X151900317Y-85421387D01*
X151914334Y-85527863D01*
X151916822Y-85537146D01*
X151971654Y-85669521D01*
X151976461Y-85677848D01*
X152063680Y-85791514D01*
X152070486Y-85798320D01*
X152184152Y-85885539D01*
X152192479Y-85890346D01*
X152324854Y-85945178D01*
X152334137Y-85947666D01*
X152440613Y-85961683D01*
X152445448Y-85962000D01*
X153386952Y-85962000D01*
X153396948Y-85958362D01*
X153400000Y-85953075D01*
X153400000Y-84051048D01*
X153396362Y-84041052D01*
X153391075Y-84038000D01*
X152445448Y-84038000D01*
X152440613Y-84038317D01*
X152334137Y-84052334D01*
X152324854Y-84054822D01*
X152192479Y-84109654D01*
X152184152Y-84114461D01*
X152070486Y-84201680D01*
X152063680Y-84208486D01*
X151976461Y-84322152D01*
X151971654Y-84330479D01*
X151916822Y-84462854D01*
X151914334Y-84472137D01*
X151900317Y-84578613D01*
X151900000Y-84583448D01*
X141900000Y-84583448D01*
X141900000Y-76782281D01*
X141917313Y-76734715D01*
X141961150Y-76709405D01*
X142011000Y-76718195D01*
G37*
%TD.AperFunction*%
%TD*%
M02*
